<svg xmlns="http://www.w3.org/2000/svg" xmlns:svg="http://www.w3.org/2000/svg" id="svg8" width="396.244" height="322.719" version="1.1" viewBox="0 0 104.84 85.386"><defs id="defs2"><clipPath id="clipPath4520" clipPathUnits="userSpaceOnUse"><path id="path4518" d="M 0,612 H 612 V 0 H 0 Z"/></clipPath><clipPath id="clipPath4852" clipPathUnits="userSpaceOnUse"><path id="path4850" d="M 57.9365,177.815 H 593.773 V 50.3916 H 57.9365 Z"/></clipPath></defs><metadata id="metadata5"/><g id="layer1" transform="translate(-38.589735,-101.99657)"><path id="path4908" fill="#231f20" fill-opacity="1" fill-rule="nonzero" stroke="none" stroke-width=".353" d="m 140.99124,101.99657 c 0.42439,0 0.82645,0.0193 1.19475,0.0574 l 1.24334,0.12816 -0.43822,1.16995 c -0.65899,1.75543 -3.67022,4.05341 -8.20518,6.3066 1.60373,0.018 3.23437,0.17025 4.62607,0.43201 l 1.33739,0.2527 -0.6811,1.17874 c -1.0488,1.81504 -2.91319,3.47109 -5.55056,4.93406 1.26965,0.30621 2.44244,0.81304 3.49901,1.51154 l 0.95136,0.6289 -0.77876,0.83406 c -1.30034,1.39418 -3.17236,2.58508 -5.69578,3.61942 1.25095,0.41064 2.33649,1.04429 3.2396,1.89342 l 0.87901,0.82786 -0.99993,0.67489 c -2.27895,1.53776 -4.90068,2.68746 -8.14059,3.55741 1.84538,0.49424 3.20942,1.11857 4.07055,1.86293 l 0.61443,0.53072 -0.41806,0.6966 c -1.34655,2.23873 -5.96087,3.38817 -10.31203,3.97908 2.01718,0.71825 3.56971,1.63537 4.63227,2.73885 l 0.82321,0.85525 -1.00562,0.63097 c -1.74696,1.09538 -5.16625,1.871 -9.5989,2.20297 5.03872,1.52575 5.56435,2.39284 5.7552,2.7068 0.19685,0.32562 0.25434,0.69268 0.16227,1.03663 -0.59232,2.20099 -5.39059,3.9636 -11.26081,4.23489 3.22721,1.69122 3.64887,2.67762 3.64887,3.29851 0,1.20438 -0.70516,2.29251 -2.09651,3.23442 -2.1329,1.44463 -5.57224,2.31133 -7.85224,2.53112 0.75918,0.70131 1.11636,1.32257 1.11001,1.92546 l -0.007,0.0863 c -0.16122,1.2379 -1.03838,2.40358 -2.53628,3.36878 -2.05281,1.32185 -4.921178,2.10031 -7.653794,2.01952 0.567266,0.59302 0.853555,1.12349 0.683163,1.71721 -1.021291,3.57117 -5.880383,4.17944 -8.844422,4.20801 0.401814,0.7867 0.461465,1.41375 0.182418,1.90376 -1.386769,2.43628 -5.48034,2.69906 -7.17579,2.69906 -0.51435,0 -1.02621,-0.0219 -1.52962,-0.0656 0.26035,0.69356 0.23417,1.22922 -0.078,1.62574 -1.02447,1.30422 -3.03882,2.05259 -5.52731,2.05259 l -0.0822,-5.2e-4 c -1.12501,-0.007 -2.20123,-0.15987 -3.16466,-0.44597 0.10654,0.60819 0.0211,1.12638 -0.2558,1.56735 -0.7306,1.16346 -2.54288,1.85828 -4.84828,1.85828 -0.90135,0 -1.85271,-0.1103 -2.78898,-0.32091 0.0614,0.66253 -0.11927,1.13471 -0.5426,1.41129 -0.97226,0.63429 -2.58269,1.01337 -4.30672,1.01337 -1.41252,0 -2.77894,-0.25152 -3.89795,-0.71365 -0.36618,0.41945 -0.88721,0.70674 -1.52962,0.83974 -0.28505,0.0593 -0.60035,0.0894 -0.9369,0.0894 -2.25425,0 -5.43107,-1.38357 -6.41356,-2.79363 l -0.1049,-0.15141 -0.0424,-0.17983 c -0.56338,-2.40453 -0.16812,-7.85059 0.25064,-13.61674 0.4399,-6.05155 0.89422,-12.30229 0.31884,-15.48329 l -0.82424,0.0868 0.2465,-1.27796 c 0.25114,-1.3022 1.13321,-7.9539 -5.74539,-12.34446 v -1.9451 h 0.25942 c 1.92723,0 2.37005,-1.0112 3.47989,-4.20595 0.82515,-2.37597 1.95546,-5.62964 4.57801,-9.31829 5.40562,-7.59989 19.2364,-7.85502 26.71,-7.99331 0.88971,-0.0162 1.67025,-0.0307 2.35076,-0.0589 0.39441,0 0.77386,0.15306 1.09347,0.43563 13.091486,-1.93429 26.881135,-6.34268 39.055495,-10.23452 11.01937,-3.52249 19.72284,-6.30504 24.87446,-6.30504 z m -0.18656,1.45056 c -4.99297,0.0829 -13.97262,2.94844 -24.2471,6.23269 -12.19835,3.8996 -25.994609,8.30479 -39.143345,10.26553 0.19615,0.54222 0.41107,1.37707 0.27596,2.18281 22.006788,-2.94694 39.147895,-6.76726 50.948305,-11.35797 7.97983,-3.10443 11.52218,-5.86945 12.63695,-7.32255 -0.15267,-0.003 -0.3097,-0.003 -0.47077,-5.1e-4 z m -6.34121,7.65328 c -1.86542,-10e-4 -3.87347,0.18602 -5.75882,0.67696 -11.86498,4.57129 -28.986142,8.37517 -50.903875,11.30887 0.0889,0.41592 0.15418,1.00237 0.0289,1.5968 19.200642,-1.2513 53.699865,-3.59633 60.603015,-13.29066 -1.154,-0.17579 -2.51838,-0.29098 -3.96926,-0.29197 z m -2.7001,6.46369 c -0.35876,-0.005 -0.6187,0.0111 -0.74517,0.0212 -11.9761,4.91667 -33.307383,6.7655 -53.436535,8.08065 0.005,0.43498 -0.053,1.02551 -0.32504,1.61747 21.979466,-0.42228 51.527175,-1.05699 59.453735,-8.42016 -1.90632,-1.08506 -3.87068,-1.28441 -4.94699,-1.29914 z m -55.774365,1.98489 c -0.6597,0.0279 -1.46638,0.0421 -2.38642,0.0594 -7.17585,0.13264 -20.53279,0.3791 -25.51472,7.38456 -2.50296,3.51967 -3.54925,6.5327 -4.38991,8.95346 -0.87136,2.50861 -1.5417,4.4358 -3.5109,5.00589 6.01415,4.3307 5.95537,10.3205 5.67562,12.60543 0.79445,-0.20602 1.38263,-0.64014 1.83348,-1.28467 0.024,-0.0427 0.0511,-0.0787 0.0786,-0.11214 0.98707,-1.52012 1.26933,-4.1406 1.57096,-7.75198 0.0282,-0.34078 0.0581,-0.68785 0.0884,-1.03921 h -10e-4 c 3.4e-4,-0.002 10e-4,-0.005 0.002,-0.007 0.21132,-2.44863 0.49792,-5.14068 1.20665,-7.79074 l -0.005,-0.002 c 0.003,-0.008 0.009,-0.0154 0.0114,-0.0238 0.46637,-1.73885 1.11959,-3.45677 2.04845,-5.07566 l -0.006,-0.003 c 0.019,-0.0374 0.0488,-0.0689 0.0703,-0.1049 0.29245,-0.5013 0.60486,-0.99628 0.95446,-1.47536 1.30633,-1.78823 2.94639,-3.28754 4.92476,-4.51239 l -0.009,-0.0279 c 0.0275,-0.01 0.0691,-0.018 0.10335,-0.0269 4.15714,-2.54141 9.80553,-3.86963 17.08475,-4.01991 0.33725,-0.0116 0.50667,-0.0976 0.50384,-0.25528 -0.004,-0.24729 -0.24544,-0.49574 -0.33434,-0.49609 z m 0.72605,1.48776 c -0.21696,0.1277 -0.49895,0.21658 -0.86971,0.22893 -2.33116,0.048 -4.43997,0.2205 -6.35414,0.49919 0.0596,0.3997 0.0976,1.0577 -0.13487,1.66553 1.33103,-0.12416 2.52167,-0.17457 3.51968,-0.21549 1.78999,-0.073 3.20395,-0.13059 3.57084,-0.5705 0.35137,-0.42192 0.36839,-1.04004 0.2682,-1.60766 z m -8.17624,0.8785 c -2.91783,0.49706 -5.35254,1.2548 -7.3856,2.2133 0.42192,-0.012 0.89049,-0.0231 1.40767,-0.0341 1.87113,-0.0402 3.99216,-0.0857 4.97747,-0.28681 0.38347,-0.0787 0.65134,-0.24825 0.81856,-0.51883 0.25294,-0.41063 0.23658,-0.99927 0.1819,-1.37356 z m 8.36434,1.60869 c -0.72354,0.52035 -2.01426,0.57483 -3.98735,0.65526 -1.10102,0.0448 -2.43818,0.1 -3.93361,0.25735 0.10442,0.29633 0.1812,0.70512 0.0641,1.16478 -0.0346,0.13547 -0.0859,0.26508 -0.14831,0.39067 0.68827,-0.0127 1.36928,-0.0203 2.02933,-0.0238 2.35973,-0.012 4.58876,-0.0228 5.32112,-0.51883 0.71508,-0.48507 0.74364,-1.33067 0.65474,-1.92546 z m 52.257275,0.4315 c -0.42191,-0.01 -0.74907,0.008 -0.93534,0.0227 -11.38343,3.17183 -30.067013,3.86444 -51.103855,4.2726 0.0702,0.4565 0.0531,1.01465 -0.16071,1.55546 22.723115,1.57374 36.244125,1.22734 44.791575,-0.0889 l 0.0124,-0.17725 c 0.0508,0.003 0.30532,0.0227 0.69867,0.0636 5.87798,-0.97367 9.30705,-2.42386 11.80754,-4.00854 -1.72587,-1.33747 -3.84453,-1.61121 -5.11028,-1.63969 z m -61.123395,0.70641 c -0.0995,0.0332 -0.19675,0.0691 -0.30541,0.0909 -1.07139,0.21873 -3.14505,0.26254 -5.15059,0.30593 -1.34161,0.0289 -2.83982,0.0617 -3.4339,0.15451 -0.63112,0.39123 -1.21328,0.80665 -1.75338,1.24127 1.12854,-0.0688 2.56591,-0.002 4.12378,0.0698 v -5.1e-4 c 2.25319,0.10336 4.80739,0.22224 5.66994,-0.22015 0.51858,-0.26528 0.82861,-0.57775 0.92139,-0.93017 0.0744,-0.28293 -0.004,-0.55072 -0.0718,-0.71159 z m 8.50491,1.726 c -1.06504,0.5207 -3.09171,0.53248 -5.60948,0.54518 -0.84526,0.005 -1.71881,0.0118 -2.60604,0.0362 0.1083,0.3489 0.20764,0.85644 0.11627,1.37149 4.33176,0.3556 6.67728,0.079 7.55923,-0.88832 0.30339,-0.33267 0.45958,-0.7114 0.54002,-1.06453 z m -9.13485,0.87229 c -1.17792,0.44732 -3.49226,0.34079 -5.93349,0.2279 -2.17699,-0.10089 -4.62824,-0.21275 -5.43222,0.18448 -0.47378,0.47801 -0.90561,0.97382 -1.29967,1.4857 1.9551,-0.48578 4.88229,-0.30843 7.5768,-0.14263 1.70886,0.10548 3.32356,0.20459 4.05557,0.0579 0.53164,-0.10548 0.88002,-0.31939 1.0356,-0.63407 0.17991,-0.36372 0.10045,-0.84517 -0.003,-1.17926 z m 8.77828,1.28313 c -0.91229,0.61489 -2.35457,0.91312 -4.5806,0.91312 -1.02553,0 -2.22289,-0.0647 -3.59978,-0.18603 -0.0392,0.0441 -0.0918,0.0771 -0.13488,0.11834 0.0303,0.37994 0.008,0.74084 -0.0708,1.0728 0.19826,0.0166 0.39176,0.0318 0.59531,0.0491 2.45992,0.20885 5.5214,0.46879 6.62595,-0.0403 1.09537,-0.50483 1.21735,-1.37245 1.16479,-1.92702 z m -17.76998,1.27073 c -2.18657,-0.0158 -4.20423,0.17551 -4.78058,0.97875 -0.1838,0.30939 -0.35588,0.62388 -0.5178,0.94103 2.3114,-0.87242 6.32966,-0.49529 9.21856,-0.22118 1.08797,0.10372 2.02864,0.19358 2.45514,0.16536 0.77612,-0.0494 1.37432,-0.30688 1.73168,-0.74362 0.22084,-0.27093 0.3421,-0.61777 0.37879,-1.01183 -0.11148,0.0335 -0.21539,0.0728 -0.33745,0.0972 -0.85584,0.17075 -2.45414,0.0727 -4.30516,-0.0413 -1.15874,-0.0711 -2.53123,-0.15487 -3.84318,-0.16433 z m 64.015215,0.75809 c -4.73816,0.76976 -10.9989,1.23817 -19.52801,1.23817 -7.078835,0 -15.723873,-0.32389 -26.338955,-1.06402 0.0279,0.4572 -0.0265,0.99634 -0.24236,1.50223 12.704936,3.31082 27.563005,4.48612 38.542865,3.96824 l 0.005,-0.0631 c 0.0392,0.003 0.19074,0.0158 0.43098,0.0419 7.60628,-0.39296 13.2755,-1.61171 14.94379,-3.50366 -1.9932,-1.36913 -6.13179,-1.93809 -7.81348,-2.11977 z m -46.840545,0.68781 c -0.0547,0.0286 -0.10594,0.0596 -0.16485,0.0868 -0.6216,0.28646 -1.59014,0.3855 -2.7342,0.3855 -1.3141,0 -2.86019,-0.13116 -4.37855,-0.25993 -0.31926,-0.0268 -0.62755,-0.0519 -0.93482,-0.077 -0.0353,0.0501 -0.069,0.1007 -0.10749,0.14832 -0.14499,0.17709 -0.31375,0.33236 -0.50178,0.46818 0.0124,0.20038 0.0111,0.40301 -0.008,0.6041 l 0.36536,0.0357 c 3.23814,0.31362 6.2973,0.61068 7.47241,0.0656 0.71261,-0.33126 0.93927,-0.93905 0.99219,-1.45728 z m -18.29139,0.89711 c -2.24461,-0.0158 -4.31147,0.23931 -4.89428,1.21542 l -0.0207,-0.0134 c -0.10442,0.26318 -0.20333,0.52689 -0.29611,0.79323 2.06058,-0.88794 5.78056,-0.52436 8.93228,-0.21497 v -5.2e-4 c 1.5441,0.15205 3.00316,0.29457 3.46283,0.16898 0.99378,-0.27129 1.27565,-1.00787 1.32292,-1.63194 -0.29422,0.0868 -0.61107,0.14503 -0.95291,0.16692 -0.50271,0.0317 -1.43299,-0.0563 -2.60915,-0.16744 -1.34584,-0.1281 -3.19911,-0.30398 -4.94491,-0.31625 z m 18.7327,1.00975 c -0.0349,0.74225 -0.2059,1.31751 -0.4532,1.76165 10.917765,4.92937 23.45681,7.03821 33.333885,7.32255 l 0.0315,-0.14159 c 0.17709,0.0392 0.4203,0.094 0.71416,0.16175 6.81426,0.1344 12.27114,-0.6085 14.89264,-1.89085 -2.78624,-2.36396 -8.08917,-3.08384 -9.43819,-3.23236 -1.70991,0.0843 -3.50398,0.12713 -5.36453,0.12713 -10.570632,0 -23.207036,-1.36613 -33.716285,-4.10828 z m -9.51311,0.39584 c -0.11536,0.26388 -0.27093,0.51081 -0.47801,0.72812 -0.0378,0.32173 -0.14228,0.63058 -0.21601,0.81649 1.01142,0.0409 2.03829,0.1292 3.03806,0.21704 2.08562,0.18486 4.05522,0.35831 4.95939,-0.0403 0.82338,-0.36336 1.11325,-1.08598 1.21026,-1.70687 -0.01,0.005 -0.0182,0.0106 -0.0284,0.0155 -0.61913,0.28785 -1.52399,0.3948 -2.65359,0.3948 -1.44568,0 -3.26062,-0.17636 -5.31802,-0.37569 z m -10.52752,1.00666 c -2.15374,-0.0106 -4.03794,0.26326 -4.42351,1.27331 -0.0748,0.28152 -0.14522,0.56304 -0.21084,0.84491 1.8408,-0.90735 5.11956,-0.55281 7.88428,-0.25012 1.57585,0.17215 3.06426,0.33526 3.65869,0.17157 1.04669,-0.28751 1.6092,-1.05662 1.85156,-1.48983 0.0201,-0.036 0.0361,-0.0691 0.0538,-0.10439 -0.0236,0.007 -0.0442,0.016 -0.0682,0.0227 -0.60148,0.16334 -1.77986,0.0593 -3.8101,-0.14004 -1.42224,-0.13953 -3.26048,-0.31989 -4.93561,-0.32815 z m 18.95801,1.13327 c -0.23918,0.20566 -0.49365,0.35662 -0.73742,0.46457 -0.0409,0.018 -0.0899,0.0289 -0.13333,0.0455 -0.03,0.4452 -0.10119,1.08275 -0.34778,1.65778 2.79118,1.34091 17.889138,8.43296 30.568675,11.282 l 0.008,-0.0222 c 0.0511,0.0194 0.1059,0.0401 0.15917,0.0599 1.70638,0.37889 3.36792,0.68092 4.94801,0.87954 6.78992,-0.006 10.93818,-2.0141 11.36468,-3.14193 -0.52493,-0.8375 -6.20699,-2.55022 -11.47785,-3.74861 -10.171287,-0.23319 -23.146978,-2.36692 -34.351905,-7.47654 z m -9.65833,0.35294 c -0.3623,0.49071 -0.9276,1.02392 -1.75028,1.34566 1.27177,0.0102 3.01237,0.22677 5.086,0.51004 1.23225,0.16863 2.39579,0.32807 3.01739,0.339 0.99765,0.025 1.32631,-0.66707 1.4459,-1.81642 -0.32103,0.0363 -0.66573,0.0563 -1.04179,0.0563 -0.95321,0 -2.06904,-0.099 -3.27061,-0.20515 -1.15287,-0.10195 -2.3429,-0.2044 -3.48661,-0.22945 z m -10.47739,1.0139 c -1.80308,-0.0104 -3.33201,0.24817 -3.77651,1.1715 -0.0684,0.37747 -0.12995,0.75479 -0.18604,1.1312 1.37407,-0.47095 3.84501,-0.33569 6.64042,-0.10956 0.6343,0.0512 1.1825,0.0956 1.52187,0.10336 1.03117,0.0116 2.05702,-0.91268 2.6324,-1.73995 -0.70414,-0.0328 -1.55161,-0.12519 -2.50941,-0.22996 -1.35217,-0.1477 -2.92034,-0.31849 -4.32273,-0.32659 z m 8.37262,1.29191 c -0.46356,0.009 -0.8209,0.057 -1.0077,0.16019 -0.48895,0.61913 -1.15463,1.22064 -1.93321,1.54978 1.10102,0.0663 2.63369,0.27194 4.5775,0.5457 1.53317,0.2159 2.9815,0.41996 3.74809,0.44184 1.12607,0.0342 1.4066,-0.67036 1.69447,-1.74563 0.0194,-0.0741 0.04,-0.1365 0.0594,-0.20671 -0.5394,-0.0631 -1.16067,-0.14754 -1.82883,-0.23926 -1.57189,-0.21458 -3.91909,-0.53378 -5.30975,-0.50591 z m 9.99628,0.31574 c -0.25082,0.23389 -0.57373,0.40742 -0.98753,0.48679 0.73483,0.45756 1.92004,1.18772 3.40806,2.07636 1.28093,0.76483 2.78315,1.64363 4.40593,2.56367 1.62489,0.91652 3.363635,1.88663 5.126819,2.8081 0.877358,0.47025 1.764391,0.91985 2.639632,1.36012 0.86995,0.45015 1.744211,0.85589 2.583822,1.26194 0.836436,0.41416 1.669193,0.76057 2.446362,1.11828 0.777523,0.35737 1.534687,0.64138 2.222603,0.93172 0.6858,0.29774 1.338913,0.50277 1.905827,0.7183 0.28575,0.10302 0.552843,0.19963 0.799434,0.28887 0.251531,0.0759 0.482259,0.14459 0.690398,0.20775 0.835378,0.25152 1.312581,0.39429 1.312581,0.39429 0,0 -0.482222,-0.12838 -1.32395,-0.3545 -0.210961,-0.0561 -0.444149,-0.11863 -0.698149,-0.18707 -0.249767,-0.0815 -0.519646,-0.17108 -0.808219,-0.26562 -0.573969,-0.19791 -1.236693,-0.38436 -1.931665,-0.66094 -0.697089,-0.27023 -1.465996,-0.53253 -2.25516,-0.86662 -0.789517,-0.33444 -1.636123,-0.65646 -2.48667,-1.04593 -0.853721,-0.38241 -1.742791,-0.76207 -2.628263,-1.18752 -0.890411,-0.41486 -1.793424,-0.83843 -2.686658,-1.28364 -1.796696,-0.86995 -3.568004,-1.78864 -5.225004,-2.65824 -1.65523,-0.87312 -3.18878,-1.70995 -4.49688,-2.43809 -1.95757,-1.08973 -3.41363,-1.93708 -4.02146,-2.29444 -0.0713,0.26246 -0.16172,0.57723 -0.30283,0.89297 2.0447,1.71274 15.26469,12.45653 32.059025,18.54512 0.75742,0.30516 5.9819,-0.40365 8.74521,-2.27479 0.96978,-0.65581 1.46105,-1.34083 1.4614,-2.03192 -0.0938,-0.73484 -4.1792,-2.85848 -8.96534,-4.67 -13.021026,-2.91359 -28.541045,-10.25456 -30.989325,-11.43496 z m -19.73213,1.35444 c -1.72424,0.003 -2.65018,0.18863 -2.76417,0.55552 -0.0741,0.60643 -0.13767,1.20687 -0.19482,1.79989 0.97684,-0.28504 2.66487,-0.33118 5.04259,-0.13539 0.85443,0.0702 1.5257,-0.1132 1.99419,-0.5457 0.43427,-0.40112 0.63475,-0.95611 0.73071,-1.41542 -0.25577,-0.0187 -0.53922,-0.0417 -0.84543,-0.0667 -1.60655,-0.13005 -2.92852,-0.19398 -3.96307,-0.19224 z m 6.01101,0.97462 c -0.16532,0.001 -0.30389,0.009 -0.40928,0.0264 -0.16475,0.47625 -0.42768,0.97522 -0.86971,1.38338 -0.36478,0.33655 -0.80213,0.56492 -1.30483,0.69298 1.15817,-0.14711 2.81689,0.22153 4.66121,0.63252 1.35608,0.30233 2.75932,0.61611 3.82612,0.66197 1.79635,0.0716 2.28213,-1.19951 2.45463,-2.4293 -0.83396,-0.0783 -1.9579,-0.23678 -3.13159,-0.40153 -1.59989,-0.22595 -4.06931,-0.57354 -5.22655,-0.56637 z m 10.8784,0.35088 c -0.3048,0.31715 -0.71914,0.56041 -1.29346,0.63872 0.44238,0.43568 1.74901,1.70977 3.60392,3.39462 1.15393,1.0467 2.51699,2.24924 4.00854,3.5016 0.75071,0.61878 1.51727,1.27324 2.32337,1.90117 0.40076,0.31822 0.80407,0.63894 1.20871,0.96067 0.41275,0.31256 0.82694,0.62586 1.24075,0.93948 0.821975,0.63605 1.670579,1.23471 2.50631,1.82314 0.825499,0.60607 1.681834,1.13422 2.49287,1.67432 0.807156,0.54681 1.637526,0.99123 2.39882,1.45831 0.765528,0.46143 1.53267,0.81537 2.21847,1.18649 0.172861,0.09 0.342338,0.1773 0.508496,0.26303 0.170745,0.0734 0.338113,0.14598 0.500744,0.21653 0.326319,0.14182 0.634836,0.2761 0.925525,0.40204 0.2921,0.12312 0.561593,0.24884 0.817004,0.34726 0.260704,0.0857 0.499983,0.16371 0.716236,0.23462 0.866069,0.28258 1.36064,0.4439 1.36064,0.4439 0,0 -0.499213,-0.14745 -1.373042,-0.40463 -0.219075,-0.0649 -0.46166,-0.13684 -0.725538,-0.21446 -0.258586,-0.0914 -0.531875,-0.2083 -0.827856,-0.32401 -0.295275,-0.11818 -0.609089,-0.24375 -0.939994,-0.37569 -0.165806,-0.0663 -0.336481,-0.13391 -0.510047,-0.20412 -0.168628,-0.0808 -0.341244,-0.16373 -0.517281,-0.24805 -0.698147,-0.35207 -1.480663,-0.68609 -2.26136,-1.12706 -0.776816,-0.44591 -1.62603,-0.87052 -2.45153,-1.39475 -0.830086,-0.51788 -1.70669,-1.02519 -2.552298,-1.60868 -0.856898,-0.56727 -1.727219,-1.14418 -2.571419,-1.75907 -0.42475,-0.30268 -0.84892,-0.60546 -1.27331,-0.90744 -0.41522,-0.3115 -0.82974,-0.62167 -1.24178,-0.92965 -0.82868,-0.60783 -1.61659,-1.24237 -2.38952,-1.84279 -1.53494,-1.21427 -2.93955,-2.3827 -4.12947,-3.40082 -1.65911,-1.42134 -2.90168,-2.55086 -3.50211,-3.10472 -0.13723,0.50129 -0.3281,0.92612 -0.57257,1.27537 2.46168,2.77636 15.86911,17.5982 25.25582,21.98781 2.674056,0.80434 6.589094,0.1816 9.124505,-1.45211 1.09679,-0.70662 1.7632,-1.52424 1.88102,-2.30529 -0.0596,-0.78634 -3.40562,-2.85734 -6.53758,-4.32066 l 10e-4,-0.003 C 83.418913,151.93542 72.482665,143.14161 70.339185,141.35655 Z m -17.2067,1.74356 c -1.90129,-0.0128 -2.60893,0.23393 -2.73937,0.37207 -0.03,0.34255 -0.0579,0.68185 -0.0858,1.01699 -0.0257,0.31256 -0.0521,0.62239 -0.0785,0.92966 0.78317,-0.24941 1.84042,-0.17879 2.81585,-0.11317 0.75353,0.0515 1.53181,0.10334 1.9234,-0.0191 0.59266,-0.18486 0.65516,-1.22327 0.69608,-1.91048 0.004,-0.0561 0.007,-0.10248 0.0103,-0.15399 -0.0734,-0.003 -0.14483,-0.004 -0.21962,-0.009 -0.9219,-0.0757 -1.68857,-0.1089 -2.32234,-0.11317 z m 4.26796,0.93896 c -0.34565,1.3e-4 -0.63313,0.0387 -0.83509,0.13074 -0.0967,0.76588 -0.35604,1.61193 -1.14309,1.95906 1.07069,0.0356 2.34425,0.41967 3.67316,0.82889 1.21109,0.37289 2.46305,0.75857 3.40496,0.78961 0.64982,0.0159 1.18336,-0.19528 1.58905,-0.64544 0.44944,-0.49882 0.67392,-1.20227 0.74518,-1.77095 -1.05869,-0.10266 -2.30026,-0.37866 -3.50676,-0.64854 -1.33192,-0.29685 -2.89048,-0.64376 -3.92741,-0.64337 z m 9.95443,0.82114 c -0.34749,0.2406 -0.75529,0.39401 -1.2206,0.46457 0.11007,0.16263 0.23966,0.35322 0.39171,0.57723 0.50624,0.73131 1.24192,1.76912 2.15491,2.99361 1.82245,2.45075 4.36666,5.64152 7.15925,8.61085 0.6978,0.74189 1.41204,1.4686 2.12959,2.16886 0.72213,0.69603 1.44414,1.36977 2.16627,1.99419 0.72108,0.62653 1.43275,1.21452 2.13372,1.7384 0.34643,0.2674 0.688941,0.52153 1.030428,0.75189 0.335494,0.23848 0.664154,0.46282 0.990121,0.66249 0.639586,0.41804 1.254561,0.75739 1.804541,1.0449 0.278695,0.13794 0.539178,0.26713 0.780831,0.38602 0.24765,0.10336 0.475943,0.19884 0.681612,0.28422 0.407811,0.1845 0.750768,0.26782 0.975134,0.35037 0.227189,0.0755 0.349333,0.11524 0.349333,0.11524 0,0 -0.123128,-0.0363 -0.352433,-0.10439 -0.227189,-0.0762 -0.573047,-0.15014 -0.986503,-0.32195 -0.20955,-0.0804 -0.441451,-0.16879 -0.692981,-0.2651 -0.245533,-0.11254 -0.511151,-0.2345 -0.794784,-0.36431 -0.560564,-0.2727 -1.188001,-0.59522 -1.843815,-0.99633 -0.333727,-0.19119 -0.671129,-0.40681 -1.015442,-0.63717 -0.349957,-0.22225 -0.701839,-0.46679 -1.058849,-0.72502 -0.720723,-0.50694 -1.454493,-1.07766 -2.197803,-1.6862 -0.74541,-0.60607 -1.49127,-1.26344 -2.2381,-1.94148 -0.74295,-0.68333 -1.48372,-1.39307 -2.20762,-2.11874 -2.89701,-2.90371 -5.55066,-6.03799 -7.45742,-8.45064 -1.05128,-1.32539 -1.87919,-2.43118 -2.4133,-3.16002 -0.15098,0.50588 -0.39661,1.02446 -0.77514,1.46296 1.54164,2.60103 12.56005,20.79425 21.309292,24.70444 1.46685,0.0699 7.646381,0.16047 8.66097,-3.06286 -0.1651,-0.34502 -1.209787,-1.21498 -1.781287,-1.68982 -0.671336,-0.55845 -1.095533,-0.91795 -1.308964,-1.19735 -9.508772,-5.06659 -21.856661,-18.74018 -24.372671,-21.58886 z m -15.66623,1.34927 c -0.71846,-0.002 -1.36458,0.0775 -1.56941,0.39016 -0.0868,0.87136 -0.18765,1.70736 -0.32453,2.4877 0.36865,-0.0138 0.75924,0.0605 1.14412,0.13488 0.47589,0.0914 0.96764,0.1883 1.45624,0.14314 0.0829,-0.007 0.16203,-0.0235 0.23823,-0.0439 0.09,-0.0395 0.17897,-0.0728 0.26716,-0.10284 0.15029,-0.0794 0.28392,-0.18945 0.39998,-0.33021 0.42863,-0.52105 0.61235,-1.42979 0.53227,-2.57349 -0.27517,-0.0113 -0.55845,-0.0266 -0.85266,-0.046 -0.40336,-0.0274 -0.86032,-0.0581 -1.2914,-0.0594 z m 3.50987,0.88057 c -0.13743,0.003 -0.26736,0.0156 -0.38809,0.0377 -0.0339,0.78704 -0.203,1.45498 -0.50075,1.97921 0.75248,0.1143 1.47037,0.4659 2.17558,0.81339 0.76482,0.37641 1.55663,0.76485 2.38848,0.84387 0.99343,0.0945 1.60996,-0.34563 1.95286,-0.73122 0.39475,-0.44309 0.60246,-1.01593 0.62786,-1.44384 -0.83678,-0.15558 -1.74966,-0.43383 -2.64325,-0.709 -1.30973,-0.40375 -2.65075,-0.81286 -3.61269,-0.79013 z m 8.89868,1.23455 c -0.44415,0.25647 -0.95347,0.38912 -1.51051,0.38912 -0.0307,0 -0.0615,-7.4e-4 -0.0925,-0.001 0.29528,0.61243 1.07546,2.20329 2.21176,4.32066 1.46861,2.7298 3.51944,6.33131 5.8446,9.7529 0.58173,0.85478 1.1727,1.70327 1.78335,2.51819 0.6022,0.8202 1.22249,1.60652 1.8402,2.35335 0.61701,0.74823 1.24161,1.44628 1.85157,2.09186 0.30621,0.32244 0.61855,0.62022 0.91312,0.91726 0.30727,0.28292 0.60464,0.55557 0.89039,0.81803 0.2988,0.24659 0.58548,0.4829 0.85782,0.70797 0.28081,0.21413 0.55594,0.40508 0.81029,0.59169 0.52634,0.34395 0.99116,0.64169 1.4025,0.83148 0.39864,0.21802 0.73432,0.33772 0.96221,0.42168 0.227192,0.0864 0.348302,0.13229 0.348302,0.13229 0,0 -0.122256,-0.0424 -0.351912,-0.12247 -0.23072,-0.0776 -0.57029,-0.1872 -0.97669,-0.39429 -0.41945,-0.17816 -0.89375,-0.46389 -1.4335,-0.79479 -0.2607,-0.17992 -0.54445,-0.36358 -0.83303,-0.57102 -0.2801,-0.21837 -0.57534,-0.44829 -0.88366,-0.68782 -0.29528,-0.25541 -0.60164,-0.52081 -0.91984,-0.79633 -0.3048,-0.28999 -0.62802,-0.58155 -0.94517,-0.89659 -0.63217,-0.63216 -1.28237,-1.31674 -1.92443,-2.05052 -0.64276,-0.73342 -1.2904,-1.50639 -1.92081,-2.31355 -0.63712,-0.80221 -1.25608,-1.63717 -1.86604,-2.47995 -3.76837,-5.21935 -6.88065,-10.84778 -8.10338,-13.13977 -0.13617,0.26846 -0.30363,0.52596 -0.50436,0.75138 -0.12453,0.1397 -0.26055,0.26293 -0.40308,0.37723 1.16911,2.36255 11.29956,22.63757 16.39332,25.71626 2.90019,0.56127 7.640497,0.28062 8.759155,-1.67483 0.03775,-0.26282 -0.544002,-1.24783 -1.439705,-2.26136 v -5.2e-4 c -8.79263,-4.73922 -18.95022,-21.44546 -20.75997,-24.50651 z m -10.27793,1.70945 c -0.31998,0.002 -0.63923,0.0762 -0.96841,0.25064 l -0.004,-0.007 c -0.0395,0.22366 -0.0731,0.45751 -0.1049,0.70693 -0.0561,0.4385 -0.12133,0.93929 -0.26562,1.38804 0.29316,0.0741 0.59898,0.20884 0.93483,0.36018 0.54575,0.24589 1.22453,0.55295 2.19573,0.78755 0.56515,0.13617 0.99894,0.10054 1.32808,-0.11007 0.58597,-0.37429 0.77385,-1.26833 0.89556,-1.87793 -0.62477,-0.18555 -1.20545,-0.46821 -1.77096,-0.7462 -0.82849,-0.40722 -1.53621,-0.7555 -2.24017,-0.7519 z m -3.77238,0.0279 c -0.19434,-0.0138 -0.34791,-5.8e-4 -0.46715,0.0527 -0.17039,0.71085 -0.38179,1.36376 -0.65836,1.93632 0.15875,0.0554 0.32017,0.12128 0.47646,0.18655 v -5.2e-4 c 0.47166,0.19508 1.05877,0.43822 1.55442,0.43822 0.12136,0 0.22004,-0.0284 0.30541,-0.0873 l -0.002,-0.002 c 0.0106,-0.007 0.0201,-0.0106 0.03,-0.0176 0.25648,-0.2039 0.37274,-0.71897 0.49868,-1.70532 0.0229,-0.17711 0.0466,-0.3557 0.0734,-0.53279 -0.39123,-0.0261 -0.76168,-0.0946 -1.1007,-0.16019 -0.28064,-0.0538 -0.5157,-0.0942 -0.71004,-0.10801 z m 10.25777,1.46658 c -0.36442,0.13794 -0.7572,0.21342 -1.16995,0.21342 -0.11607,0 -0.23338,-0.006 -0.35192,-0.017 -0.002,-3.6e-4 -0.005,-7.5e-4 -0.007,-0.001 -0.0109,0.055 -0.0231,0.11418 -0.0362,0.17416 0.18874,0.4907 0.81765,2.10728 1.76062,4.32273 1.13841,2.67229 2.7359,6.20647 4.54494,9.633 0.90312,1.71344 1.86262,3.397 2.83911,4.92735 0.48859,0.76412 0.976,1.49497 1.46812,2.16524 0.24307,0.33796 0.48308,0.66313 0.72967,0.96687 0.23813,0.31079 0.47839,0.60272 0.71934,0.87436 0.23213,0.2794 0.46844,0.53449 0.70021,0.7705 0.22367,0.24412 0.45047,0.46117 0.67025,0.65732 0.21378,0.2039 0.42152,0.38471 0.62684,0.5364 0.20214,0.15522 0.37912,0.31171 0.56327,0.41755 0.1785,0.1143 0.33781,0.21512 0.47645,0.30437 0.14535,0.0766 0.27426,0.13335 0.37621,0.18346 0.20532,0.0984 0.31419,0.14986 0.31419,0.14986 0,0 -0.1107,-0.0483 -0.31884,-0.14005 -0.10372,-0.0473 -0.23441,-0.0999 -0.38292,-0.1726 -0.14217,-0.0847 -0.30509,-0.18193 -0.48783,-0.29094 -0.18874,-0.10089 -0.3708,-0.25107 -0.57929,-0.401 -0.21167,-0.14641 -0.42651,-0.32228 -0.64699,-0.5209 -0.2286,-0.19014 -0.46309,-0.40215 -0.69557,-0.64027 -0.2413,-0.23107 -0.48698,-0.48005 -0.72863,-0.75345 -0.25154,-0.26528 -0.50145,-0.55235 -0.75086,-0.85679 -0.25788,-0.29845 -0.50959,-0.61819 -0.7643,-0.94981 -0.51611,-0.65969 -1.02884,-1.37864 -1.5446,-2.13217 -1.02906,-1.50813 -2.04609,-3.17081 -3.00706,-4.86379 -2.91465,-5.12268 -5.33027,-10.49389 -6.33604,-12.81059 -0.19156,0.36618 -0.45401,0.70661 -0.83148,0.94827 -0.0448,0.0289 -0.094,0.0503 -0.14056,0.0754 0.98849,2.57705 7.72453,20.01104 10.78487,24.60315 0.77012,1.00682 2.86206,1.72066 5.08703,1.73478 h 0.0713 c 1.96991,0 3.5804,-0.53433 4.34134,-1.43815 -0.0406,-0.3683 -0.72427,-1.46781 -1.1529,-1.98851 l 0.0196,-0.0165 c -5.47123,-4.22558 -14.85427,-23.01345 -16.16026,-25.66458 z m -11.89436,1.37149 c -0.46814,0.64664 -1.06784,1.13924 -1.84537,1.43557 0.57926,0.30762 1.29268,0.65059 2.09032,0.97513 0.19367,0.0649 0.35072,0.0545 0.51159,-0.0372 0.50623,-0.28928 0.84916,-1.2463 0.98392,-1.75183 -0.40322,-0.10336 -0.78868,-0.25549 -1.12241,-0.39378 -0.20778,-0.0861 -0.47165,-0.19367 -0.61805,-0.22789 z m 3.64732,0.38241 c -0.0608,0.002 -0.11303,0.0159 -0.1633,0.0413 -0.20108,0.16722 -0.45428,0.27647 -0.77566,0.30541 -0.0716,0.30656 -0.29521,1.12871 -0.75241,1.78593 0.26565,0.12136 0.51654,0.21181 0.75396,0.27389 l 0.0248,-0.005 c 0,0 10e-4,0.007 0.002,0.0103 0.52987,0.13407 0.98858,0.12118 1.36994,-0.0439 0.5595,-0.24341 0.97872,-0.82179 1.25212,-1.71256 -0.28681,-0.11536 -0.53717,-0.22732 -0.75448,-0.32504 v 5.2e-4 c -0.51435,-0.23205 -0.77406,-0.33622 -0.95653,-0.33073 z m 2.66961,0.99477 c 0.0716,0.19756 0.17717,0.48856 0.31264,0.86144 0.26247,0.74225 0.62113,1.80016 1.03353,3.07475 0.82832,2.54811 1.8692,5.95675 2.99103,9.33741 1.12007,3.37891 2.3387,6.73023 3.52226,9.12348 0.29528,0.59796 0.58663,1.13605 0.8692,1.59784 0.28399,0.46037 0.54791,0.85433 0.79944,1.15031 0.11818,0.15522 0.23499,0.28365 0.34364,0.38913 0.10407,0.10936 0.19181,0.20336 0.27647,0.2651 0.16158,0.13264 0.24805,0.2036 0.24805,0.2036 0,0 -0.0888,-0.068 -0.25425,-0.19534 -0.0875,-0.0593 -0.17866,-0.15012 -0.28732,-0.25631 -0.11253,-0.10301 -0.23394,-0.2278 -0.35812,-0.37879 -0.26317,-0.29033 -0.54192,-0.67613 -0.84284,-1.13016 -0.30021,-0.45473 -0.61131,-0.98543 -0.92811,-1.57562 -1.27035,-2.36432 -2.60704,-5.68605 -3.84317,-9.03355 -1.23861,-3.34857 -2.39555,-6.72389 -3.30678,-9.23355 -0.45296,-1.25412 -0.84552,-2.29446 -1.12809,-3.01377 -0.007,-0.0166 -0.0124,-0.0309 -0.0191,-0.0475 -0.29703,0.46673 -0.66434,0.81346 -1.09967,1.03818 0.95497,3.54577 6.17655,22.79119 7.97678,26.47383 3.26354,1.17582 6.7442,0.70733 7.49773,-0.49247 0.29951,-0.47696 -0.34571,-1.63868 -0.65474,-2.19677 -0.084,-0.15099 -0.1548,-0.27992 -0.20877,-0.38964 -0.13018,-0.12382 -0.2503,-0.25143 -0.35296,-0.38654 -3.21627,-4.82424 -10.05346,-22.60033 -10.93576,-24.90855 -0.0543,0.004 -0.10704,0.0103 -0.16278,0.0103 -0.26176,0 -0.54017,-0.0357 -0.83509,-0.10697 -0.23248,-0.0561 -0.44823,-0.11668 -0.65319,-0.17983 z m -8.32094,1.06298 c 0.4953,3.47028 0.0583,9.52374 -0.36897,15.40526 -0.40498,5.57318 -0.78782,10.84163 -0.30593,13.08706 0.8696,1.10808 4.10858,2.39641 5.81567,2.04329 0.56339,-0.11713 0.78322,-0.36934 0.87953,-0.60359 -2.38901,-3.4858 -3.6032,-25.35817 -3.7884,-28.98014 -0.10584,-0.0162 -0.2119,-0.0403 -0.32091,-0.078 -0.7112,-0.28892 -1.35854,-0.59092 -1.91099,-0.87385 z m 3.21479,0.78135 c -0.008,0.004 -0.0169,0.005 -0.0243,0.01 0.53058,10.53113 1.93425,26.66229 3.66851,28.66078 2.13325,1.2386 5.84546,1.14613 7.4259,0.20774 0.002,-0.25541 -0.19193,-0.91585 -0.44028,-1.48311 -1.79776,-3.43042 -7.11869,-23.06518 -8.12199,-26.79475 -0.10301,0.0109 -0.20248,0.0289 -0.30902,0.0289 -0.16757,0 -0.33983,-0.0134 -0.51728,-0.0398 0.008,0.0554 0.017,0.10901 0.0269,0.16898 0.10619,0.762 0.25757,1.85106 0.43925,3.15846 0.35066,2.61091 0.78151,6.09216 1.33325,9.55291 0.55175,3.45792 1.23769,6.90463 2.11047,9.38289 0.21378,0.62054 0.44366,1.17627 0.67438,1.65674 0.23671,0.4759 0.46259,0.8848 0.69401,1.1896 0.10619,0.15946 0.21461,0.29118 0.31833,0.39842 0.0981,0.11183 0.18135,0.20699 0.26355,0.26872 0.15734,0.13335 0.24132,0.20412 0.24132,0.20412 0,0 -0.0863,-0.0683 -0.24752,-0.19637 -0.0854,-0.0589 -0.17243,-0.15092 -0.27544,-0.25993 -0.10795,-0.10442 -0.22129,-0.23353 -0.33383,-0.39016 -0.24377,-0.29951 -0.48495,-0.70243 -0.74001,-1.17409 -0.24871,-0.4759 -0.50038,-1.02837 -0.73639,-1.64538 -0.96449,-2.4638 -1.77157,-5.90228 -2.44326,-9.35033 -0.6731,-3.45193 -1.2239,-6.9226 -1.66346,-9.51621 -0.22613,-1.29364 -0.41412,-2.37167 -0.5457,-3.12591 -0.0444,-0.23566 -0.0821,-0.43494 -0.11421,-0.60462 -0.2226,-0.0857 -0.44962,-0.18647 -0.68316,-0.30747 z"/></g></svg>