<?xml version="1.0" encoding="UTF-8" standalone="no"?>
<!-- Created with Inkscape (http://www.inkscape.org/) -->

<svg
   xmlns:dc="http://purl.org/dc/elements/1.1/"
   xmlns:cc="http://creativecommons.org/ns#"
   xmlns:rdf="http://www.w3.org/1999/02/22-rdf-syntax-ns#"
   xmlns:svg="http://www.w3.org/2000/svg"
   xmlns="http://www.w3.org/2000/svg"
   xmlns:sodipodi="http://sodipodi.sourceforge.net/DTD/sodipodi-0.dtd"
   xmlns:inkscape="http://www.inkscape.org/namespaces/inkscape"
   width="177.4019mm"
   height="33.437565mm"
   viewBox="0 0 177.4019 33.437565"
   version="1.1"
   id="svg8"
   inkscape:version="0.92.1 r15371"
   sodipodi:docname="lacewing_f.svg">
  <defs
     id="defs2">
    <clipPath
       clipPathUnits="userSpaceOnUse"
       id="clipPath4520">
      <path
         d="M 0,612 H 612 V 0 H 0 Z"
         id="path4518"
         inkscape:connector-curvature="0" />
    </clipPath>
    <clipPath
       clipPathUnits="userSpaceOnUse"
       id="clipPath4852">
      <path
         d="M 57.9365,177.815 H 593.773 V 50.3916 H 57.9365 Z"
         id="path4850"
         inkscape:connector-curvature="0" />
    </clipPath>
    <clipPath
       clipPathUnits="userSpaceOnUse"
       id="clipPath4520-2">
      <path
         d="M 0,612 H 612 V 0 H 0 Z"
         id="path4518-9"
         inkscape:connector-curvature="0" />
    </clipPath>
    <clipPath
       clipPathUnits="userSpaceOnUse"
       id="clipPath4852-1">
      <path
         d="M 57.9365,177.815 H 593.773 V 50.3916 H 57.9365 Z"
         id="path4850-2"
         inkscape:connector-curvature="0" />
    </clipPath>
  </defs>
  <sodipodi:namedview
     id="base"
     pagecolor="#ffffff"
     bordercolor="#666666"
     borderopacity="1.0"
     inkscape:pageopacity="0.0"
     inkscape:pageshadow="2"
     inkscape:zoom="0.49497475"
     inkscape:cx="320.28559"
     inkscape:cy="-237.40546"
     inkscape:document-units="mm"
     inkscape:current-layer="flowRoot4555"
     showgrid="false"
     inkscape:window-width="1366"
     inkscape:window-height="700"
     inkscape:window-x="0"
     inkscape:window-y="34"
     inkscape:window-maximized="1"
     fit-margin-top="0"
     fit-margin-left="0"
     fit-margin-right="0"
     fit-margin-bottom="0" />
  <metadata
     id="metadata5">
    <rdf:RDF>
      <cc:Work
         rdf:about="">
        <dc:format>image/svg+xml</dc:format>
        <dc:type
           rdf:resource="http://purl.org/dc/dcmitype/StillImage" />
        <dc:title></dc:title>
      </cc:Work>
    </rdf:RDF>
  </metadata>
  <g
     inkscape:label="Layer 1"
     inkscape:groupmode="layer"
     id="layer1"
     transform="translate(-50.015248,-113.49413)">
    <g
       transform="matrix(0.76095967,0,0,0.76095967,208.28523,26.257166)"
       id="layer1-3"
       inkscape:label="Layer 1"
       style="fill:#0e2877;fill-opacity:1">
      <path
         inkscape:connector-curvature="0"
         id="path4908"
         d="m 23.887135,114.64072 c 0.218399,0 0.425307,0.01 0.614841,0.0295 l 0.639846,0.0659 -0.225516,0.60208 c -0.339128,0.90338 -1.888766,2.08596 -4.222543,3.24549 0.82531,0.009 1.66447,0.0876 2.380664,0.22233 l 0.688247,0.13004 -0.350507,0.6066 c -0.539733,0.93406 -1.499182,1.78629 -2.856424,2.53916 0.653386,0.15759 1.256926,0.41841 1.800657,0.77787 l 0.489589,0.32365 -0.400766,0.42923 c -0.669179,0.71746 -1.632556,1.33032 -2.931157,1.86261 0.643763,0.21132 1.202403,0.53741 1.667161,0.97439 l 0.452355,0.42604 -0.514584,0.34731 c -1.172791,0.79136 -2.521983,1.38301 -4.189304,1.83071 0.949669,0.25434 1.65163,0.57564 2.094784,0.95869 l 0.316198,0.27312 -0.215142,0.35849 c -0.692961,1.15209 -3.067579,1.74362 -5.306769,2.04771 1.038079,0.36963 1.837041,0.84159 2.383855,1.40946 l 0.42364,0.44013 -0.517512,0.32471 c -0.899019,0.56371 -2.658651,0.96286 -4.939778,1.13369 2.593023,0.78518 2.863521,1.23141 2.961737,1.39298 0.101302,0.16756 0.130888,0.35646 0.08351,0.53347 -0.304821,1.13267 -2.774103,2.03973 -5.7950301,2.17935 1.6607851,0.87034 1.8777781,1.37795 1.8777781,1.69747 0,0.6198 -0.3628881,1.17977 -1.0789037,1.66451 -1.0976306,0.74342 -2.8675816,1.18944 -4.040913,1.30255 0.3906887,0.36091 0.5745005,0.68062 0.5712323,0.99088 l -0.0036,0.0444 c -0.082966,0.63705 -0.5343702,1.23693 -1.305218,1.73363 -1.0564157,0.68026 -2.5325326,1.08087 -3.93878903,1.03929 0.2919256,0.30518 0.4392559,0.57817 0.3515684,0.88371 -0.5255764,1.8378 -3.02615717,2.15082 -4.55150837,2.16552 0.206781,0.40485 0.237478,0.72755 0.09388,0.97972 -0.713659,1.25375 -2.820289,1.38898 -3.692799,1.38898 -0.264695,0 -0.528107,-0.0112 -0.787172,-0.0338 0.133981,0.35692 0.120508,0.63259 -0.04014,0.83664 -0.527213,0.67117 -1.563835,1.05631 -2.8444596,1.05631 l -0.0423,-2.7e-4 c -0.578952,-0.004 -1.132795,-0.0823 -1.628595,-0.22951 0.05483,0.31299 0.01086,0.57965 -0.13164,0.80659 -0.37598,0.59874 -1.308614,0.95631 -2.495017,0.95631 -0.463853,0 -0.95344,-0.0567 -1.435263,-0.16515 0.03159,0.34095 -0.06138,0.58394 -0.279233,0.72628 -0.500344,0.32642 -1.329101,0.5215 -2.21632,0.5215 -0.72691,0 -1.430096,-0.12944 -2.005959,-0.36727 -0.188444,0.21587 -0.456576,0.36371 -0.787172,0.43216 -0.146692,0.0305 -0.308952,0.046 -0.482147,0.046 -1.160081,0 -2.794933,-0.71201 -3.300541,-1.43765 l -0.05399,-0.0779 -0.02182,-0.0925 c -0.289926,-1.23742 -0.08652,-4.04006 0.128985,-7.00743 0.226381,-3.11424 0.460182,-6.33101 0.16408,-7.968 l -0.42417,0.0447 0.126855,-0.65767 c 0.129242,-0.67013 0.583171,-4.09322 -2.956687,-6.35269 v -1.00099 h 0.133501 c 0.99179,0 1.219674,-0.52038 1.790818,-2.16446 0.424638,-1.22272 1.006317,-2.89712 2.355933,-4.79537 2.781835,-3.91105 9.899419,-4.04235 13.745477,-4.11351 0.457862,-0.008 0.8595426,-0.0158 1.2097466,-0.0303 0.202971,0 0.398243,0.0788 0.56272,0.22419 6.7371288,-0.99543 13.8335465,-3.26407 20.0987054,-5.26688 5.670779,-1.81275 10.149751,-3.2447 12.800874,-3.2447 z m -0.09601,0.74648 c -2.569478,0.0426 -7.190578,1.51734 -12.478023,3.20747 -6.2775032,2.00681 -13.3773232,4.2738 -20.1439144,5.28283 0.100943,0.27904 0.211545,0.70868 0.142015,1.12332 11.3251135,-1.51656 20.1462564,-3.48256 26.2189734,-5.84503 4.106574,-1.5976 5.929535,-3.02053 6.503217,-3.76832 -0.07857,-0.002 -0.159378,-0.002 -0.242268,-2.7e-4 z m -3.263307,3.93853 c -0.959982,-5.1e-4 -1.993363,0.0957 -2.9636,0.34837 -6.105946,2.35248 -14.9168245,4.31003 -26.1961084,5.81976 0.04575,0.21405 0.07934,0.51585 0.01487,0.82176 9.8810182,-0.64395 27.6349794,-1.85075 31.1874734,-6.83964 -0.59387,-0.0905 -1.296007,-0.14974 -2.042658,-0.15025 z m -1.389524,3.32633 c -0.184625,-0.003 -0.318395,0.005 -0.383479,0.0109 -6.16313,2.53022 -17.1406176,3.48166 -27.4994644,4.15847 0.0026,0.22384 -0.02727,0.52774 -0.167272,0.83237 11.3110541,-0.2173 26.5168724,-0.54394 30.5960314,-4.33317 -0.981029,-0.55839 -1.991926,-0.66098 -2.545816,-0.66856 z m -28.7025574,1.02147 c -0.339494,0.0144 -0.7546266,0.0217 -1.2280966,0.0306 -3.69283,0.0683 -10.566567,0.1951 -13.130363,3.80024 -1.288072,1.8113 -1.826513,3.36185 -2.259132,4.60763 -0.448419,1.29097 -0.793388,2.28274 -1.806777,2.57612 3.094997,2.22867 3.064748,5.31113 2.920783,6.487 0.408839,-0.10603 0.711528,-0.32943 0.943544,-0.66112 0.01236,-0.022 0.0263,-0.0406 0.04045,-0.0577 0.507966,-0.78228 0.653222,-2.13083 0.808447,-3.98932 0.01452,-0.17537 0.02989,-0.35397 0.04549,-0.53479 h -5.14e-4 c 1.75e-4,-7.8e-4 5.14e-4,-0.003 9.89e-4,-0.004 0.10875,-1.26011 0.256239,-2.64549 0.620966,-4.00926 l -0.0025,-7.8e-4 c 0.0015,-0.004 0.0047,-0.008 0.0059,-0.0122 0.240003,-0.89485 0.576162,-1.77892 1.054171,-2.61204 l -0.0031,-0.002 c 0.0098,-0.0192 0.02511,-0.0355 0.03618,-0.054 0.150501,-0.25798 0.311273,-0.51271 0.491184,-0.75925 0.672263,-0.92026 1.516269,-1.69183 2.534376,-2.32216 l -0.0047,-0.0144 c 0.01415,-0.005 0.03556,-0.009 0.05319,-0.0139 2.139344,-1.30785 5.046114,-1.99139 8.7921386,-2.06872 0.173555,-0.006 0.260742,-0.0503 0.259286,-0.13137 -0.0021,-0.12726 -0.126308,-0.25511 -0.172058,-0.25529 z m 0.373639,0.76563 c -0.111651,0.0657 -0.256768,0.11146 -0.447568,0.11781 -1.1996596,0.0247 -2.2848936,0.11348 -3.2699616,0.2569 0.03067,0.20569 0.05023,0.54431 -0.0694,0.85711 0.684974,-0.0639 1.2977,-0.0898 1.811295,-0.1109 0.921163,-0.0376 1.6488146,-0.0672 1.8376226,-0.29359 0.180821,-0.21713 0.189581,-0.53522 0.13802,-0.82733 z m -4.2076486,0.4521 c -1.501571,0.25579 -2.754519,0.64574 -3.800772,1.139 0.217129,-0.006 0.458264,-0.0119 0.724415,-0.0175 0.96292,-0.0207 2.054442,-0.0441 2.561502,-0.14759 0.197341,-0.0406 0.335192,-0.12776 0.421246,-0.267 0.130168,-0.21133 0.121749,-0.51425 0.09361,-0.70686 z m 4.3044496,0.82786 c -0.372348,0.26778 -1.0365766,0.29581 -2.0519666,0.3372 -0.566606,0.023 -1.254734,0.0515 -2.024311,0.13244 0.05374,0.1525 0.09325,0.36287 0.03299,0.59943 -0.01781,0.0697 -0.04421,0.13641 -0.07633,0.20104 0.354197,-0.006 0.704658,-0.0105 1.044332,-0.0122 1.214363,-0.006 2.3614636,-0.0117 2.7383496,-0.267 0.367994,-0.24962 0.382692,-0.68479 0.336942,-0.99087 z m 26.8925954,0.22205 c -0.217123,-0.005 -0.385486,0.004 -0.481344,0.0117 -5.858131,1.63228 -15.4730622,1.98872 -26.2990234,2.19876 0.03613,0.23492 0.02733,0.52216 -0.0827,0.80047 11.6937498,0.80988 18.6519205,0.63161 23.0506024,-0.0457 l 0.0064,-0.0912 c 0.02614,0.002 0.157123,0.0117 0.359549,0.0327 3.024922,-0.50106 4.789586,-1.24736 6.076387,-2.06287 -0.888165,-0.68829 -1.978469,-0.82917 -2.629848,-0.84382 z m -31.45527,0.36354 c -0.05121,0.0171 -0.101252,0.0355 -0.157169,0.0468 -0.551359,0.11257 -1.618504,0.13512 -2.650594,0.15744 -0.690418,0.0149 -1.461425,0.0317 -1.76715,0.0795 -0.324786,0.20133 -0.624378,0.41512 -0.902324,0.63878 0.580769,-0.0354 1.320467,-7.7e-4 2.122177,0.036 v -2.6e-4 c 1.159535,0.0532 2.473975,0.11437 2.91786,-0.1133 0.266871,-0.13651 0.426418,-0.29731 0.474164,-0.47867 0.0383,-0.14561 -0.0021,-0.28341 -0.03694,-0.3662 z m 4.3767886,0.88823 c -0.54809,0.26796 -1.5910526,0.27403 -2.8867456,0.28057 -0.434986,0.003 -0.884532,0.006 -1.341118,0.0186 0.05573,0.17955 0.106856,0.44074 0.05983,0.7058 2.229207,0.18299 3.436256,0.0406 3.8901236,-0.45716 0.15613,-0.17119 0.236509,-0.36609 0.277905,-0.54782 z m -4.7009676,0.44889 c -0.606181,0.2302 -1.797184,0.17538 -3.053489,0.11729 -1.12032,-0.052 -2.38178,-0.10949 -2.795523,0.0949 -0.243818,0.24599 -0.466045,0.50114 -0.668836,0.76456 1.006132,-0.24998 2.51252,-0.15872 3.899166,-0.0734 0.879412,0.0543 1.710369,0.10528 2.087075,0.0298 0.273591,-0.0543 0.452875,-0.16436 0.532939,-0.3263 0.09259,-0.18718 0.0517,-0.43494 -0.0015,-0.60686 z m 4.5174696,0.66034 c -0.469482,0.31642 -1.2117066,0.4699 -2.3572636,0.4699 -0.527757,0 -1.143942,-0.0333 -1.852516,-0.0957 -0.02017,0.0227 -0.04724,0.0397 -0.06941,0.0609 0.01559,0.19553 0.0041,0.38126 -0.03643,0.55209 0.102028,0.009 0.201608,0.0164 0.306358,0.0253 1.265922,0.10748 2.841419,0.24126 3.409841,-0.0208 0.5636976,-0.2598 0.6264706,-0.70629 0.5994226,-0.99169 z m -9.1447716,0.65393 c -1.125251,-0.008 -2.163577,0.0903 -2.460178,0.50368 -0.09459,0.15922 -0.183142,0.32106 -0.266469,0.48427 1.18949,-0.44896 3.257363,-0.25488 4.744047,-0.11382 0.55989,0.0533 1.043976,0.0996 1.263462,0.0851 0.399407,-0.0254 0.707252,-0.15792 0.891155,-0.38268 0.11365,-0.13942 0.176052,-0.31792 0.194934,-0.52071 -0.05737,0.0173 -0.110844,0.0374 -0.173659,0.05 -0.440432,0.0879 -1.262948,0.0374 -2.215518,-0.0213 -0.59631,-0.0366 -1.302619,-0.0797 -1.977774,-0.0845 z m 32.943456,0.39013 c -2.438347,0.39613 -5.6602456,0.63718 -10.0494885,0.63718 -3.64290363,0 -8.0918069,-0.16668 -13.5545309,-0.54756 0.01436,0.23528 -0.01364,0.51274 -0.124722,0.77308 6.5382023,1.70381 14.1844489,2.30864 19.8348964,2.04212 l 0.0025,-0.0325 c 0.02017,0.002 0.09816,0.008 0.22179,0.0216 3.914339,-0.20222 6.831828,-0.82941 7.690361,-1.80305 -1.025738,-0.70458 -3.155536,-0.99738 -4.020965,-1.09087 z m -24.1050424,0.35396 c -0.02815,0.0147 -0.05452,0.0307 -0.08483,0.0446 -0.3198876,0.14741 -0.8183166,0.19838 -1.4070716,0.19838 -0.676261,0 -1.471909,-0.0674 -2.253286,-0.13376 -0.164297,-0.0139 -0.322949,-0.0267 -0.481077,-0.0396 -0.01817,0.0258 -0.03551,0.0518 -0.05531,0.0763 -0.07461,0.0911 -0.161463,0.17104 -0.258227,0.24094 0.0064,0.10312 0.0058,0.20739 -0.0041,0.31088 l 0.188021,0.0184 c 1.666409,0.1614 3.240711,0.31427 3.845445,0.0338 0.3667226,-0.17047 0.4833666,-0.48326 0.5106006,-0.74994 z m -9.4130986,0.46167 c -1.155119,-0.008 -2.218765,0.12316 -2.51869,0.62548 l -0.01066,-0.007 c -0.05374,0.13545 -0.104636,0.27115 -0.152383,0.40821 1.060414,-0.45695 2.974787,-0.26984 4.596722,-0.11063 v -2.6e-4 c 0.794623,0.0782 1.545483,0.15159 1.782039,0.087 0.511419,-0.13962 0.656473,-0.51867 0.6808,-0.83983 -0.151411,0.0446 -0.314469,0.0746 -0.490386,0.0859 -0.258704,0.0163 -0.737444,-0.029 -1.342719,-0.0862 -0.692595,-0.0659 -1.646323,-0.15643 -2.544744,-0.16274 z m 9.6402056,0.51964 c -0.01796,0.38198 -0.10596,0.67801 -0.233225,0.90658 5.618491,2.53674 12.0713232,3.622 17.154255,3.76832 l 0.016206,-0.0729 c 0.091134,0.0201 0.2162941,0.0484 0.3675213,0.0833 3.5067481,0.0692 6.3149641,-0.31315 7.6640381,-0.97307 -1.433852,-1.21655 -4.162843,-1.587 -4.857074,-1.66344 -0.8799528,0.0434 -1.8032158,0.0654 -2.7606903,0.0654 -5.4398497,0 -11.9427845,-0.70303 -17.3510455,-2.11419 z m -4.8956286,0.20371 c -0.05937,0.13579 -0.139425,0.26287 -0.245993,0.3747 -0.01945,0.16557 -0.07322,0.3245 -0.111163,0.42019 0.520497,0.021 1.048944,0.0665 1.563445,0.11169 1.0733,0.0951 2.086893,0.18438 2.552196,-0.0208 0.423728,-0.18699 0.5729,-0.55886 0.622824,-0.87838 -0.0051,0.003 -0.0094,0.005 -0.01461,0.008 -0.318616,0.14813 -0.784274,0.20316 -1.365588,0.20316 -0.743974,0 -1.677978,-0.0907 -2.736755,-0.19333 z m -5.417663,0.51804 c -1.108357,-0.005 -2.078001,0.13547 -2.276423,0.65527 -0.03849,0.14487 -0.07474,0.28975 -0.108502,0.4348 0.94731,-0.46694 2.634623,-0.28447 4.057401,-0.12871 0.810963,0.0886 1.576927,0.17254 1.882832,0.0883 0.538647,-0.14795 0.828125,-0.54375 0.952849,-0.76669 0.01034,-0.0185 0.01857,-0.0356 0.02768,-0.0537 -0.01214,0.004 -0.02275,0.008 -0.0351,0.0116 -0.309533,0.0841 -0.91595,0.0305 -1.960751,-0.072 -0.731911,-0.0719 -1.677905,-0.16463 -2.539959,-0.16887 z m 9.756155,0.5832 c -0.123087,0.10584 -0.254041,0.18353 -0.37949,0.23908 -0.02104,0.009 -0.04627,0.0148 -0.06862,0.0235 -0.01544,0.22911 -0.05208,0.5572 -0.178974,0.85313 1.4363936,0.69006 9.2060922,4.33976 15.7312252,5.80593 l 0.00414,-0.0114 c 0.026297,0.01 0.054501,0.0207 0.081914,0.0309 0.8781358,0.19499 1.7331958,0.35042 2.5463404,0.45264 3.4942234,-0.003 5.6289974,-1.0365 5.8484824,-1.61691 -0.27014,-0.43099 -3.194236,-1.31239 -5.9067213,-1.9291 -5.2343398,-0.12 -11.9118791,-1.21806 -17.6781487,-3.84758 z m -4.970362,0.18163 c -0.186447,0.25253 -0.47736,0.52692 -0.900727,0.6925 0.654477,0.005 1.550224,0.11671 2.617353,0.26248 0.634139,0.0868 1.232919,0.16883 1.552806,0.17446 0.51341,0.0129 0.682545,-0.34329 0.744088,-0.93477 -0.165208,0.0187 -0.342597,0.029 -0.536124,0.029 -0.490541,0 -1.064768,-0.0509 -1.683119,-0.10558 -0.593289,-0.0525 -1.205701,-0.10518 -1.794277,-0.11807 z m -5.391865,0.52177 c -0.9279,-0.005 -1.714717,0.12772 -1.943464,0.60289 -0.0352,0.19425 -0.06688,0.38842 -0.09574,0.58213 0.707122,-0.24236 1.978715,-0.17276 3.417287,-0.0564 0.326423,0.0264 0.608537,0.0492 0.783184,0.0532 0.530659,0.006 1.058581,-0.46969 1.354683,-0.89541 -0.362364,-0.0168 -0.798488,-0.0645 -1.29139,-0.11834 -0.695853,-0.076 -1.502864,-0.1639 -2.22456,-0.16807 z m 4.308711,0.66484 c -0.238558,0.005 -0.422452,0.0293 -0.518582,0.0825 -0.251624,0.31863 -0.594195,0.62817 -0.994868,0.79756 0.566607,0.0341 1.355348,0.13994 2.355671,0.28082 0.788997,0.11112 1.534336,0.21612 1.928838,0.22738 0.579497,0.0176 0.723863,-0.34498 0.872007,-0.89833 0.01,-0.0381 0.02059,-0.0702 0.03057,-0.10637 -0.277585,-0.0325 -0.597303,-0.076 -0.94115,-0.12314 -0.808926,-0.11042 -2.01684,-0.2747 -2.7325,-0.26035 z m 5.144277,0.1625 c -0.129077,0.12035 -0.295252,0.20966 -0.508202,0.25051 0.378158,0.23547 0.988089,0.61122 1.7538526,1.06853 0.659191,0.39359 1.432262,0.84584 2.267376,1.31932 0.836199,0.47165 1.730991,0.97089 2.638359,1.4451 0.451505,0.24199 0.907989,0.47337 1.358405,0.69994 0.447693,0.23166 0.8976042,0.44045 1.3296846,0.64942 0.4304457,0.21313 0.8589984,0.3914 1.25894437,0.57549 0.4001279,0.1839 0.7897793,0.33006 1.1437937,0.47947 0.3529255,0.15323 0.6890303,0.25874 0.98077523,0.36966 0.1470523,0.0531 0.2845041,0.10273 0.4114045,0.14865 0.1294429,0.039 0.2481799,0.0744 0.3552917,0.10692 0.4299017,0.12944 0.6754797,0.2029 0.6754797,0.2029 0,0 -0.248161,-0.0661 -0.6813309,-0.18242 -0.1085643,-0.0289 -0.2285676,-0.0611 -0.3592804,-0.0963 -0.1285346,-0.0419 -0.2674199,-0.088 -0.4159247,-0.13669 -0.29537553,-0.10185 -0.63642593,-0.1978 -0.99407223,-0.34013 -0.3587346,-0.13907 -0.7544292,-0.27405 -1.1605481,-0.44598 -0.40630057,-0.1721 -0.84198027,-0.33783 -1.27968837,-0.53826 -0.4393411,-0.19679 -0.8968741,-0.39217 -1.3525541,-0.61111 -0.458222,-0.2135 -0.92293,-0.43148 -1.382606,-0.66059 -0.924613,-0.4477 -1.836163,-0.92047 -2.688887,-1.36798 -0.851813,-0.44933 -1.641007,-0.87997 -2.31418,-1.25469 -1.0074026,-0.5608 -1.7567196,-0.99687 -2.0695206,-1.18077 -0.03669,0.13507 -0.08322,0.29706 -0.155842,0.45954 1.052242,0.88142 7.8555016,6.41038 16.4981873,9.54368 0.3897839,0.15704 3.0784011,-0.20772 4.5004539,-1.17065 0.4990669,-0.3375 0.7518839,-0.69002 0.7520637,-1.04567 -0.048269,-0.37817 -2.1506963,-1.47103 -4.6137354,-2.40327 -6.70087,-1.49939 -14.6877679,-5.27719 -15.9476995,-5.88464 z m -10.154533,0.69701 c -0.887327,0.002 -1.363833,0.0971 -1.422495,0.28589 -0.03813,0.31208 -0.07084,0.62107 -0.100257,0.92626 0.5027,-0.1467 1.371393,-0.17044 2.595013,-0.0697 0.439706,0.0361 0.785154,-0.0583 1.026248,-0.28082 0.223484,-0.20642 0.326655,-0.49204 0.376038,-0.72841 -0.131624,-0.01 -0.277493,-0.0214 -0.435075,-0.0343 -0.826762,-0.0669 -1.507072,-0.0998 -2.039472,-0.0989 z m 3.093381,0.50156 c -0.08508,5.2e-4 -0.156388,0.005 -0.210623,0.0136 -0.08478,0.24509 -0.220092,0.50187 -0.44757,0.71192 -0.187722,0.1732 -0.41279,0.29072 -0.67149,0.35662 0.596017,-0.0757 1.449626,0.114 2.398748,0.32551 0.697865,0.15558 1.419999,0.31707 1.968996,0.34066 0.924435,0.0368 1.174426,-0.61729 1.263199,-1.25017 -0.429172,-0.0403 -1.007574,-0.12185 -1.611577,-0.20663 -0.823334,-0.11627 -2.094145,-0.29516 -2.689683,-0.29147 z m 5.598234,0.18057 c -0.156856,0.16321 -0.370084,0.2884 -0.66564,0.32871 0.227658,0.2242 0.900074,0.87986 1.854647,1.74692 0.593834,0.53865 1.2952896,1.15751 2.0628706,1.802 0.38633,0.31844 0.780816,0.65523 1.195651,0.97838 0.206238,0.16375 0.413789,0.3288 0.622025,0.49436 0.212409,0.16086 0.425559,0.32209 0.638514,0.48349 0.423004,0.32732 0.859712,0.6354 1.289795,0.93822 0.424818,0.3119 0.865504,0.58369 1.282879,0.86163 0.415377,0.2814 0.842702,0.51011 1.2344776,0.75048 0.3939558,0.23746 0.7887418,0.41961 1.1416672,0.61058 0.088958,0.0463 0.1761738,0.0913 0.2616818,0.13537 0.087868,0.0378 0.1739995,0.0751 0.2576926,0.11144 0.16793,0.073 0.32669907,0.14208 0.47629317,0.20689 0.1503202,0.0634 0.2890062,0.12806 0.4204455,0.17871 0.1341633,0.0441 0.2573012,0.0843 0.3685891,0.12074 0.4456953,0.14542 0.7002111,0.22844 0.7002111,0.22844 0,0 -0.2569045,-0.0759 -0.7065936,-0.20824 -0.11274,-0.0334 -0.2375792,-0.0704 -0.3733757,-0.11036 -0.1330731,-0.047 -0.2737129,-0.1072 -0.4260304,-0.16675 -0.151954,-0.0608 -0.31344867,-0.12543 -0.48373867,-0.19333 -0.085327,-0.0341 -0.17316,-0.0689 -0.2624801,-0.10505 -0.086779,-0.0415 -0.1756108,-0.0843 -0.2662029,-0.12764 -0.3592798,-0.18119 -0.7619772,-0.35307 -1.1637387,-0.58002 -0.399765,-0.22947 -0.836787,-0.44798 -1.261604,-0.71776 -0.427179,-0.2665 -0.878296,-0.52758 -1.313462,-0.82785 -0.440976,-0.29193 -0.88886,-0.58882 -1.323301,-0.90526 -0.218585,-0.15577 -0.436871,-0.31158 -0.65527,-0.46698 -0.21368,-0.1603 -0.427,-0.31992 -0.639044,-0.47841 -0.426455,-0.31281 -0.831928,-0.63935 -1.229693,-0.94834 -0.7899086,-0.62489 -1.5127476,-1.22619 -2.1251036,-1.75013 -0.853809,-0.73145 -1.49326,-1.31272 -1.802253,-1.59774 -0.07062,0.25797 -0.168847,0.47659 -0.294655,0.65632 1.266828,1.42878 8.1665466,9.05637 12.99712747,11.31536 1.376121,0.41393 3.39087473,0.0935 4.69564573,-0.7473 0.5644287,-0.36363 0.9073758,-0.78439 0.9680079,-1.18634 -0.030677,-0.40466 -1.7525969,-1.47045 -3.364364,-2.22349 l 5.153e-4,-0.002 c -7.3811238,-3.16163 -13.0091264,-7.68709 -14.1122024,-8.60571 z m -8.854898,0.89726 c -0.97844,-0.006 -1.342605,0.12039 -1.409732,0.19148 -0.01543,0.17629 -0.0298,0.3509 -0.04416,0.52337 -0.01322,0.16085 -0.02681,0.32029 -0.0404,0.47841 0.403034,-0.12835 0.947116,-0.092 1.449091,-0.0583 0.38778,0.0264 0.788298,0.0532 0.989817,-0.01 0.304995,-0.0951 0.337159,-0.62951 0.358217,-0.98317 0.0021,-0.0289 0.0036,-0.0527 0.0053,-0.0792 -0.03777,-0.002 -0.07453,-0.003 -0.11302,-0.005 -0.474428,-0.0389 -0.868971,-0.056 -1.195121,-0.0583 z m 2.196374,0.48321 c -0.177878,7e-5 -0.325821,0.0199 -0.429753,0.0673 -0.04976,0.39414 -0.183226,0.82953 -0.588257,1.00816 0.550998,0.0183 1.206397,0.21598 1.890279,0.42656 0.62325,0.19191 1.267533,0.39039 1.752258,0.40636 0.33441,0.008 0.608979,-0.1005 0.817756,-0.33215 0.23129,-0.25671 0.346811,-0.61872 0.383484,-0.91138 -0.544822,-0.0528 -1.183758,-0.19485 -1.804646,-0.33374 -0.685433,-0.15277 -1.487496,-0.33129 -2.021121,-0.3311 z m 5.122741,0.42258 c -0.178825,0.12382 -0.388688,0.20277 -0.628145,0.23908 0.05664,0.0837 0.123334,0.18178 0.201582,0.29706 0.260521,0.37634 0.639116,0.91042 1.108958,1.54056 0.937867,1.2612 2.247166,2.90323 3.6842866,4.43131 0.359101,0.38179 0.726663,0.75577 1.095927,1.11614 0.371623,0.35818 0.743183,0.7049 1.114804,1.02624 0.371082,0.32242 0.737322,0.62501 1.098054,0.89462 0.178279,0.13761 0.354542,0.26839 0.530278,0.38694 0.172652,0.12272 0.341786,0.23817 0.509535,0.34092 0.329144,0.21513 0.645621,0.38977 0.928652,0.53773 0.143421,0.071 0.277471,0.13747 0.40183,0.19865 0.127445,0.0531 0.244929,0.10233 0.35077,0.14626 0.209868,0.095 0.38636,0.13783 0.501823,0.18032 0.116916,0.0388 0.1797732,0.0593 0.1797732,0.0593 0,0 -0.063366,-0.0186 -0.1813682,-0.0538 -0.116916,-0.0392 -0.294901,-0.0773 -0.507673,-0.16568 -0.107839,-0.0414 -0.227179,-0.0869 -0.356622,-0.13642 -0.126355,-0.0579 -0.263048,-0.12069 -0.409011,-0.18748 -0.288477,-0.14035 -0.611368,-0.30632 -0.948862,-0.51273 -0.171743,-0.0984 -0.345376,-0.20937 -0.522566,-0.32791 -0.180095,-0.11437 -0.36118,-0.24022 -0.544904,-0.37311 -0.370898,-0.26089 -0.74851,-0.55458 -1.131032,-0.86775 -0.383602,-0.31189 -0.767435,-0.65019 -1.151769,-0.99912 -0.382336,-0.35166 -0.763551,-0.7169 -1.136083,-1.09035 -1.4908566,-1.4943 -2.8564756,-3.10726 -3.8377306,-4.34886 -0.541009,-0.68207 -0.967068,-1.25112 -1.241931,-1.62621 -0.07769,0.26034 -0.204103,0.52721 -0.398902,0.75287 0.793357,1.33854 6.4636426,10.70112 10.9661696,12.71338 0.754869,0.036 3.93497417,0.0826 4.45710087,-1.57621 -0.084963,-0.17754 -0.6225793,-0.62525 -0.9166844,-0.86961 -0.34548207,-0.28738 -0.56378207,-0.47239 -0.67361777,-0.61617 -4.8933967,-2.60736 -11.2478563,-9.64406 -12.5426423,-11.11004 z m -8.062143,0.69436 c -0.369733,-7.7e-4 -0.702239,0.0399 -0.807648,0.20079 -0.04467,0.44841 -0.09657,0.87864 -0.167009,1.28021 0.189714,-0.007 0.390719,0.0311 0.588786,0.0694 0.244901,0.047 0.497966,0.0969 0.749408,0.0737 0.04267,-0.004 0.08338,-0.0121 0.122598,-0.0226 0.04632,-0.0203 0.0921,-0.0374 0.137485,-0.0529 0.07735,-0.0408 0.146112,-0.0975 0.205838,-0.16993 0.220582,-0.26814 0.315128,-0.7358 0.273917,-1.32437 -0.141608,-0.005 -0.28739,-0.0137 -0.438795,-0.0237 -0.207577,-0.0141 -0.442738,-0.0299 -0.66458,-0.0306 z m 1.806247,0.45316 c -0.07073,0.002 -0.137589,0.008 -0.199719,0.0194 -0.01745,0.40502 -0.104467,0.74876 -0.257696,1.01854 0.387241,0.0588 0.756681,0.23975 1.119596,0.41859 0.39359,0.1937 0.801071,0.39359 1.229157,0.43426 0.511238,0.0486 0.828517,-0.17786 1.004979,-0.3763 0.203146,-0.22802 0.310038,-0.52281 0.32311,-0.74302 -0.430624,-0.08 -0.900409,-0.22326 -1.360268,-0.36487 -0.674012,-0.20778 -1.364126,-0.41831 -1.859159,-0.40661 z m 4.579431,0.63533 c -0.228568,0.13198 -0.490674,0.20024 -0.777338,0.20024 -0.01579,0 -0.03165,-3.8e-4 -0.0476,-5.2e-4 0.151957,0.31518 0.553453,1.13386 1.138214,2.22351 0.755775,1.4048 1.811172,3.2582 3.007743,5.01902 0.29937,0.43989 0.603494,0.87653 0.917747,1.29591 0.309904,0.42208 0.629117,0.82675 0.947002,1.21107 0.317525,0.38506 0.6389556,0.74429 0.9528526,1.07652 0.157581,0.16593 0.318318,0.31917 0.46991,0.47204 0.158126,0.14559 0.311158,0.28591 0.458211,0.42098 0.153768,0.12689 0.301299,0.24851 0.441451,0.36433 0.14451,0.1102 0.286097,0.20846 0.41699,0.30449 0.270865,0.17701 0.51007,0.33022 0.721753,0.4279 0.205149,0.1122 0.377896,0.1738 0.495172,0.21701 0.116918,0.0444 0.179244,0.0681 0.179244,0.0681 0,0 -0.06292,-0.0219 -0.181101,-0.0631 -0.118733,-0.0399 -0.293483,-0.0963 -0.502624,-0.2029 -0.215857,-0.0917 -0.459941,-0.23873 -0.737706,-0.40901 -0.134161,-0.0926 -0.280185,-0.18711 -0.428693,-0.29387 -0.144146,-0.11237 -0.296082,-0.23069 -0.454749,-0.35397 -0.151956,-0.13143 -0.309615,-0.26801 -0.473367,-0.4098 -0.156856,-0.14923 -0.323192,-0.29927 -0.486402,-0.4614 -0.325327,-0.32532 -0.6599326,-0.67762 -0.9903496,-1.05523 -0.330776,-0.37744 -0.664064,-0.77522 -0.988485,-1.1906 -0.327874,-0.41283 -0.646403,-0.84252 -0.9603,-1.27624 -1.939275,-2.68597 -3.540914,-5.58247 -4.170155,-6.76197 -0.07008,0.13816 -0.156254,0.27066 -0.259553,0.38668 -0.06409,0.0719 -0.134084,0.1353 -0.207433,0.19413 0.601647,1.21581 5.814971,11.64972 8.4363166,13.23407 1.492493,0.28884 3.931946,0.14442 4.507629,-0.86189 0.01943,-0.13526 -0.279954,-0.64216 -0.7409,-1.16374 v -2.7e-4 c -4.524856,-2.43889 -9.7521446,-11.03625 -10.6834776,-12.61152 z m -5.28922,0.87971 c -0.164668,7.8e-4 -0.32896,0.0392 -0.498362,0.12899 l -0.0021,-0.004 c -0.02033,0.1151 -0.03762,0.23544 -0.05399,0.3638 -0.02887,0.22566 -0.06244,0.48338 -0.136694,0.71432 0.150867,0.0381 0.308247,0.10746 0.481082,0.18535 0.280853,0.12653 0.630167,0.28455 1.129965,0.40528 0.290836,0.0701 0.514073,0.0517 0.683455,-0.0566 0.301551,-0.19261 0.398239,-0.65271 0.460873,-0.96641 -0.321519,-0.0955 -0.620348,-0.24096 -0.911371,-0.38401 -0.426356,-0.20957 -0.790562,-0.38879 -1.152834,-0.38695 z m -1.941339,0.0144 c -0.100011,-0.007 -0.179041,-2.9e-4 -0.240404,0.0271 -0.08769,0.36582 -0.196476,0.70181 -0.338805,0.99647 0.0817,0.0285 0.164766,0.0624 0.245195,0.096 v -2.7e-4 c 0.242726,0.10039 0.544864,0.22552 0.799935,0.22552 0.06245,0 0.113237,-0.0146 0.157169,-0.045 l -9.89e-4,-7.8e-4 c 0.0054,-0.004 0.01034,-0.005 0.01543,-0.009 0.13199,-0.10493 0.191819,-0.36999 0.25663,-0.87759 0.01179,-0.0911 0.02398,-0.18305 0.03777,-0.27418 -0.201335,-0.0134 -0.391974,-0.0487 -0.566441,-0.0825 -0.144423,-0.0277 -0.265388,-0.0485 -0.3654,-0.0556 z m 5.278846,0.75473 c -0.187538,0.071 -0.389671,0.10983 -0.60208,0.10983 -0.05973,0 -0.120101,-0.003 -0.181105,-0.009 -9.89e-4,-1.8e-4 -0.0025,-3.9e-4 -0.0036,-5.1e-4 -0.0056,0.0282 -0.01189,0.0588 -0.01863,0.0897 0.09713,0.25253 0.420778,1.08445 0.906049,2.22456 0.585847,1.37521 1.407946,3.19397 2.338914,4.95733 0.464761,0.88177 0.958539,1.74816 1.461059,2.53571 0.251439,0.39323 0.502269,0.76933 0.755523,1.11427 0.125088,0.17392 0.248602,0.34126 0.375502,0.49757 0.122547,0.15994 0.246189,0.31017 0.370186,0.44996 0.119459,0.14378 0.241068,0.27505 0.360342,0.39652 0.115105,0.12562 0.231821,0.23732 0.344923,0.33826 0.110015,0.10494 0.216923,0.19798 0.322584,0.27605 0.104025,0.0799 0.195103,0.16041 0.28987,0.21488 0.09186,0.0588 0.173844,0.1107 0.24519,0.15663 0.0748,0.0395 0.141139,0.0686 0.193605,0.0944 0.105661,0.0506 0.161688,0.0771 0.161688,0.0771 0,0 -0.05697,-0.0248 -0.164081,-0.072 -0.05338,-0.0243 -0.120632,-0.0515 -0.197058,-0.0889 -0.07317,-0.0435 -0.157005,-0.0936 -0.251046,-0.14972 -0.09713,-0.052 -0.190821,-0.12921 -0.298115,-0.20636 -0.108929,-0.0754 -0.219489,-0.16585 -0.332953,-0.26807 -0.117642,-0.0978 -0.238315,-0.20695 -0.357954,-0.32949 -0.124177,-0.11892 -0.250609,-0.24705 -0.374967,-0.38775 -0.129447,-0.13651 -0.258055,-0.28424 -0.386406,-0.44091 -0.13271,-0.1536 -0.262245,-0.31814 -0.393323,-0.48879 -0.265601,-0.33949 -0.529462,-0.70948 -0.794882,-1.09726 -0.529574,-0.77611 -1.052956,-1.63176 -1.54749,-2.503 -1.499935,-2.63623 -2.743059,-5.40035 -3.260649,-6.59257 -0.09858,0.18844 -0.233641,0.36363 -0.427895,0.48799 -0.02306,0.0148 -0.04837,0.0259 -0.07233,0.0389 0.508696,1.3262 3.975191,10.29806 5.550101,12.66125 0.396318,0.51813 1.472871,0.88548 2.617883,0.89275 h 0.03669 c 1.0137526,0 1.8425416,-0.27497 2.2341356,-0.7401 -0.0209,-0.18953 -0.372723,-0.75536 -0.593304,-1.02333 l 0.01009,-0.008 c -2.8155996,-2.17457 -7.6442916,-11.84316 -8.3163786,-13.20749 z m -6.121067,0.7058 c -0.240914,0.33278 -0.54953,0.58628 -0.949662,0.73877 0.298098,0.15831 0.665237,0.33482 1.075718,0.50183 0.09967,0.0334 0.180488,0.0281 0.263274,-0.0192 0.260517,-0.14887 0.436995,-0.64138 0.506345,-0.90153 -0.207505,-0.0532 -0.40587,-0.13147 -0.577614,-0.20264 -0.106927,-0.0443 -0.24272,-0.0997 -0.318061,-0.11728 z m 1.876981,0.1968 c -0.03129,7.7e-4 -0.05817,0.008 -0.08404,0.0213 -0.10348,0.0861 -0.233781,0.14228 -0.399169,0.15718 -0.03685,0.15775 -0.151921,0.58084 -0.387205,0.91906 0.136709,0.0624 0.265822,0.109 0.388002,0.14095 l 0.01276,-0.003 c 0,0 5.15e-4,0.004 9.89e-4,0.005 0.272682,0.0691 0.508743,0.0623 0.704998,-0.0226 0.287929,-0.12526 0.503668,-0.4229 0.644365,-0.88131 -0.147599,-0.0594 -0.276438,-0.11698 -0.388271,-0.16728 v 2.8e-4 c -0.264694,-0.11942 -0.398346,-0.17303 -0.492248,-0.1702 z m 1.373832,0.51193 c 0.03685,0.10167 0.09117,0.25142 0.160891,0.44331 0.135072,0.38197 0.319646,0.92639 0.531875,1.58233 0.42627,1.3113 0.961926,3.06546 1.539241,4.8052 0.576409,1.73886 1.20354,3.46351 1.812622,4.69512 0.151957,0.30773 0.301892,0.58463 0.447308,0.82228 0.146146,0.23692 0.281965,0.43966 0.411406,0.59197 0.06082,0.0799 0.120931,0.14598 0.176844,0.20026 0.05356,0.0563 0.09871,0.10465 0.142277,0.13642 0.08315,0.0683 0.127652,0.10478 0.127652,0.10478 0,0 -0.0457,-0.035 -0.130842,-0.10053 -0.04503,-0.0305 -0.09194,-0.0772 -0.147861,-0.1319 -0.05791,-0.0531 -0.12039,-0.11723 -0.184295,-0.19492 -0.135433,-0.14942 -0.278882,-0.34797 -0.433742,-0.58161 -0.154493,-0.23401 -0.314592,-0.50712 -0.477623,-0.81084 -0.653747,-1.21674 -1.341633,-2.92616 -1.97777,-4.64884 -0.637411,-1.72325 -1.232795,-3.46025 -1.701731,-4.75177 -0.233102,-0.64539 -0.435122,-1.18077 -0.580537,-1.55094 -0.0036,-0.009 -0.0064,-0.0159 -0.0098,-0.0245 -0.152857,0.24019 -0.341883,0.41862 -0.565911,0.53427 0.491445,1.82472 3.178571,11.72878 4.105003,13.62394 1.679481,0.6051 3.470695,0.364 3.858476,-0.25343 0.154133,-0.24546 -0.177909,-0.8433 -0.336941,-1.13052 -0.04323,-0.0777 -0.07967,-0.14404 -0.107437,-0.20051 -0.06699,-0.0638 -0.12881,-0.12938 -0.181641,-0.19892 -1.655154,-2.48264 -5.173703,-11.63056 -5.627751,-12.81842 -0.02795,0.003 -0.05509,0.005 -0.08377,0.005 -0.134707,0 -0.277982,-0.0184 -0.429754,-0.055 -0.119639,-0.0289 -0.230668,-0.06 -0.336144,-0.0925 z m -4.282115,0.54702 c 0.254891,1.78588 0.03,4.9011 -0.189879,7.92785 -0.20841,2.86806 -0.405427,5.57931 -0.157437,6.73485 0.447513,0.57024 2.114354,1.23325 2.992855,1.05151 0.289932,-0.0603 0.40306,-0.19007 0.452623,-0.31062 -1.22943,-1.79385 -1.854275,-13.0498 -1.949583,-14.91373 -0.05447,-0.008 -0.109047,-0.0207 -0.165146,-0.0401 -0.365998,-0.14868 -0.699131,-0.3041 -0.983433,-0.4497 z m 1.654393,0.40211 c -0.0041,0.003 -0.0087,0.003 -0.0125,0.005 0.273048,5.41952 0.995403,13.72093 1.887887,14.74939 1.09781,0.6374 3.008185,0.58982 3.821509,0.1069 9.89e-4,-0.13144 -0.09877,-0.4713 -0.226576,-0.76324 -0.925162,-1.76535 -3.663414,-11.86977 -4.179731,-13.78909 -0.05301,0.005 -0.104201,0.0149 -0.159028,0.0149 -0.08624,0 -0.174883,-0.007 -0.266202,-0.0205 0.0041,0.0285 0.0087,0.056 0.01384,0.087 0.05465,0.39214 0.132551,0.95259 0.226047,1.6254 0.180456,1.34363 0.402181,3.13514 0.686116,4.91611 0.283942,1.77951 0.636939,3.55325 1.086089,4.82862 0.110015,0.31934 0.228315,0.60534 0.347048,0.85259 0.121815,0.2449 0.238058,0.45533 0.357152,0.61219 0.05464,0.082 0.110442,0.14984 0.163818,0.20504 0.05048,0.0576 0.09333,0.10652 0.135628,0.13828 0.08097,0.0686 0.124188,0.10505 0.124188,0.10505 0,0 -0.04441,-0.0352 -0.127379,-0.10106 -0.04394,-0.0303 -0.08874,-0.0776 -0.141747,-0.13376 -0.05555,-0.0537 -0.11388,-0.12018 -0.171795,-0.20079 -0.125449,-0.15413 -0.249565,-0.36148 -0.380823,-0.6042 -0.127991,-0.24491 -0.257506,-0.52922 -0.378961,-0.84675 -0.496345,-1.26792 -0.911684,-3.03743 -1.257348,-4.81186 -0.34639,-1.77643 -0.629843,-3.5625 -0.856049,-4.89722 -0.11637,-0.66573 -0.213113,-1.22051 -0.280828,-1.60865 -0.02284,-0.12129 -0.04225,-0.22383 -0.05877,-0.31116 -0.114554,-0.0441 -0.231383,-0.0959 -0.351567,-0.15822 z"
         style="fill:#0e2877;fill-opacity:1;fill-rule:nonzero;stroke:none;stroke-width:0.18154621" />
    </g>
    <g
       transform="matrix(0.39160442,0,0,0.39160442,34.903337,73.551827)"
       id="layer1-9"
       inkscape:label="Layer 1"
       style="fill:#0e2877;fill-opacity:1">
      <path
         inkscape:connector-curvature="0"
         id="path4908-3"
         d="m 41.027828,101.99657 c -0.424391,0 -0.826457,0.0193 -1.194757,0.0574 l -1.243336,0.12816 0.438217,1.16995 c 0.658989,1.75543 3.670225,4.05341 8.205183,6.3066 -1.603726,0.018 -3.234366,0.17025 -4.626075,0.43201 l -1.337384,0.2527 0.681096,1.17874 c 1.048806,1.81504 2.913197,3.47109 5.550564,4.93406 -1.269647,0.30621 -2.442442,0.81304 -3.499011,1.51154 l -0.951363,0.6289 0.778764,0.83406 c 1.300338,1.39418 3.172356,2.58508 5.695776,3.61942 -1.25095,0.41064 -2.336485,1.04429 -3.239596,1.89342 l -0.879015,0.82786 0.999938,0.67489 c 2.278945,1.53776 4.900678,2.68746 8.140589,3.55741 -1.845381,0.49424 -3.209422,1.11857 -4.070553,1.86293 l -0.614433,0.53072 0.418063,0.6966 c 1.346553,2.23873 5.960871,3.38817 10.312032,3.97908 -2.017184,0.71825 -3.56971,1.63537 -4.632276,2.73885 l -0.823205,0.85525 1.005623,0.63097 c 1.746955,1.09538 5.166244,1.871 9.598897,2.20297 -5.038724,1.52575 -5.564352,2.39284 -5.755204,2.7068 -0.19685,0.32562 -0.254339,0.69268 -0.162264,1.03663 0.592313,2.20099 5.390589,3.9636 11.260811,4.23489 -3.227211,1.69122 -3.648873,2.67762 -3.648873,3.29851 0,1.20438 0.705157,2.29251 2.096513,3.23442 2.132894,1.44463 5.572232,2.31133 7.852234,2.53112 -0.759177,0.70131 -1.11636,1.32257 -1.11001,1.92546 l 0.0067,0.0863 c 0.161219,1.2379 1.038385,2.40358 2.536279,3.36878 2.052814,1.32185 4.921181,2.10031 7.653797,2.01952 -0.567266,0.59302 -0.853555,1.12349 -0.683163,1.71721 1.021291,3.57117 5.880383,4.17944 8.844422,4.20801 -0.401814,0.7867 -0.461465,1.41375 -0.182418,1.90376 1.386769,2.43628 5.48034,2.69906 7.17579,2.69906 0.51435,0 1.02621,-0.0219 1.52962,-0.0656 -0.26035,0.69356 -0.23417,1.22922 0.078,1.62574 1.02447,1.30422 3.03882,2.05259 5.52731,2.05259 l 0.0822,-5.2e-4 c 1.12501,-0.007 2.20123,-0.15987 3.16466,-0.44597 -0.10654,0.60819 -0.0211,1.12638 0.2558,1.56735 0.7306,1.16346 2.54288,1.85828 4.84828,1.85828 0.90135,0 1.85271,-0.1103 2.78898,-0.32091 -0.0614,0.66253 0.11927,1.13471 0.5426,1.41129 0.97226,0.63429 2.58269,1.01337 4.30672,1.01337 1.41252,0 2.77894,-0.25152 3.89795,-0.71365 0.36618,0.41945 0.88721,0.70674 1.52962,0.83974 0.28505,0.0593 0.60035,0.0894 0.9369,0.0894 2.25425,0 5.43107,-1.38357 6.41356,-2.79363 l 0.1049,-0.15141 0.0424,-0.17983 c 0.56338,-2.40453 0.16812,-7.85059 -0.25064,-13.61674 -0.4399,-6.05155 -0.89422,-12.30229 -0.31884,-15.48329 l 0.82424,0.0868 -0.2465,-1.27796 c -0.25114,-1.3022 -1.13321,-7.9539 5.74539,-12.34446 v -1.9451 h -0.25942 c -1.92723,0 -2.37005,-1.0112 -3.47989,-4.20595 -0.82515,-2.37597 -1.95546,-5.62964 -4.57801,-9.31829 -5.40562,-7.59989 -19.2364,-7.85502 -26.71,-7.99331 -0.88971,-0.0162 -1.67025,-0.0307 -2.35076,-0.0589 -0.39441,0 -0.77386,0.15306 -1.09347,0.43563 -13.091486,-1.93429 -26.881137,-6.34268 -39.055498,-10.23452 -11.019366,-3.52249 -19.722837,-6.30504 -24.874452,-6.30504 z m 0.186553,1.45056 c 4.992973,0.0829 13.972624,2.94844 24.247099,6.23269 12.19835,3.8996 25.994614,8.30479 39.14335,10.26553 -0.19615,0.54222 -0.41107,1.37707 -0.27596,2.18281 -22.006788,-2.94694 -39.147891,-6.76726 -50.948306,-11.35797 -7.979833,-3.10443 -11.522177,-5.86945 -12.636954,-7.32255 0.152676,-0.003 0.309708,-0.003 0.470771,-5.1e-4 z m 6.341215,7.65328 c 1.865417,-10e-4 3.873467,0.18602 5.758822,0.67696 11.864973,4.57129 28.986139,8.37517 50.903872,11.30887 -0.0889,0.41592 -0.15418,1.00237 -0.0289,1.5968 -19.200642,-1.2513 -53.699865,-3.59633 -60.603019,-13.29066 1.154001,-0.17579 2.518386,-0.29098 3.969265,-0.29197 z m 2.700094,6.46369 c 0.358769,-0.005 0.618703,0.0111 0.745174,0.0212 11.9761,4.91667 33.307384,6.7655 53.436536,8.08065 -0.005,0.43498 0.053,1.02551 0.32504,1.61747 -21.979466,-0.42228 -51.527172,-1.05699 -59.453735,-8.42016 1.906323,-1.08506 3.870677,-1.28441 4.946985,-1.29914 z m 55.77437,1.98489 c 0.6597,0.0279 1.46638,0.0421 2.38642,0.0594 7.17585,0.13264 20.53279,0.3791 25.51472,7.38456 2.50296,3.51967 3.54925,6.5327 4.38991,8.95346 0.87136,2.50861 1.5417,4.4358 3.5109,5.00589 -6.01415,4.3307 -5.95537,10.3205 -5.67562,12.60543 -0.79445,-0.20602 -1.38263,-0.64014 -1.83348,-1.28467 -0.024,-0.0427 -0.0511,-0.0787 -0.0786,-0.11214 -0.98707,-1.52012 -1.26933,-4.1406 -1.57096,-7.75198 -0.0282,-0.34078 -0.0581,-0.68785 -0.0884,-1.03921 h 0.001 c -3.4e-4,-0.002 -0.001,-0.005 -0.002,-0.007 -0.21132,-2.44863 -0.49792,-5.14068 -1.20665,-7.79074 l 0.005,-0.002 c -0.003,-0.008 -0.009,-0.0154 -0.0114,-0.0238 -0.46637,-1.73885 -1.11959,-3.45677 -2.04845,-5.07566 l 0.006,-0.003 c -0.019,-0.0374 -0.0488,-0.0689 -0.0703,-0.1049 -0.29245,-0.5013 -0.60486,-0.99628 -0.95446,-1.47536 -1.30633,-1.78823 -2.94639,-3.28754 -4.92476,-4.51239 l 0.009,-0.0279 c -0.0275,-0.01 -0.0691,-0.018 -0.10335,-0.0269 -4.15714,-2.54141 -9.80553,-3.86963 -17.08475,-4.01991 -0.33725,-0.0116 -0.50667,-0.0976 -0.50384,-0.25528 0.004,-0.24729 0.24544,-0.49574 0.33434,-0.49609 z m -0.72605,1.48776 c 0.21696,0.1277 0.49895,0.21658 0.86971,0.22893 2.33116,0.048 4.43997,0.2205 6.35414,0.49919 -0.0596,0.3997 -0.0976,1.0577 0.13487,1.66553 -1.33103,-0.12416 -2.52167,-0.17457 -3.51968,-0.21549 -1.78999,-0.073 -3.20395,-0.13059 -3.57084,-0.5705 -0.35137,-0.42192 -0.36839,-1.04004 -0.2682,-1.60766 z m 8.17624,0.8785 c 2.91783,0.49706 5.35254,1.2548 7.3856,2.2133 -0.42192,-0.012 -0.89049,-0.0231 -1.40767,-0.0341 -1.87113,-0.0402 -3.99216,-0.0857 -4.97747,-0.28681 -0.38347,-0.0787 -0.65134,-0.24825 -0.81856,-0.51883 -0.25294,-0.41063 -0.23658,-0.99927 -0.1819,-1.37356 z m -8.36434,1.60869 c 0.72354,0.52035 2.01426,0.57483 3.98735,0.65526 1.10102,0.0448 2.43818,0.1 3.93361,0.25735 -0.10442,0.29633 -0.1812,0.70512 -0.0641,1.16478 0.0346,0.13547 0.0859,0.26508 0.14831,0.39067 -0.68827,-0.0127 -1.36928,-0.0203 -2.02933,-0.0238 -2.35973,-0.012 -4.58876,-0.0228 -5.32112,-0.51883 -0.71508,-0.48507 -0.74364,-1.33067 -0.65474,-1.92546 z m -52.257278,0.4315 c 0.421917,-0.01 0.749077,0.008 0.935343,0.0227 11.383433,3.17183 30.067013,3.86444 51.103855,4.2726 -0.0702,0.4565 -0.0531,1.01465 0.16071,1.55546 -22.723115,1.57374 -36.244123,1.22734 -44.791575,-0.0889 l -0.0124,-0.17725 c -0.0508,0.003 -0.305319,0.0227 -0.698666,0.0636 -5.87798,-0.97367 -9.307059,-2.42386 -11.807547,-4.00854 1.725876,-1.33747 3.844532,-1.61121 5.110282,-1.63969 z m 61.123398,0.70641 c 0.0995,0.0332 0.19675,0.0691 0.30541,0.0909 1.07139,0.21873 3.14505,0.26254 5.15059,0.30593 1.34161,0.0289 2.83982,0.0617 3.4339,0.15451 0.63112,0.39123 1.21328,0.80665 1.75338,1.24127 -1.12854,-0.0688 -2.56591,-0.002 -4.12378,0.0698 v -5.1e-4 c -2.25319,0.10336 -4.80739,0.22224 -5.66994,-0.22015 -0.51858,-0.26528 -0.82861,-0.57775 -0.92139,-0.93017 -0.0744,-0.28293 0.004,-0.55072 0.0718,-0.71159 z m -8.50491,1.726 c 1.06504,0.5207 3.09171,0.53248 5.60948,0.54518 0.84526,0.005 1.71881,0.0118 2.60604,0.0362 -0.1083,0.3489 -0.20764,0.85644 -0.11627,1.37149 -4.33176,0.3556 -6.67728,0.079 -7.55923,-0.88832 -0.30339,-0.33267 -0.45958,-0.7114 -0.54002,-1.06453 z m 9.13485,0.87229 c 1.17792,0.44732 3.49226,0.34079 5.93349,0.2279 2.17699,-0.10089 4.62824,-0.21275 5.43222,0.18448 0.47378,0.47801 0.90561,0.97382 1.29967,1.4857 -1.9551,-0.48578 -4.88229,-0.30843 -7.5768,-0.14263 -1.70886,0.10548 -3.32356,0.20459 -4.05557,0.0579 -0.53164,-0.10548 -0.88002,-0.31939 -1.0356,-0.63407 -0.17991,-0.36372 -0.10045,-0.84517 0.003,-1.17926 z m -8.77828,1.28313 c 0.91229,0.61489 2.35457,0.91312 4.5806,0.91312 1.02553,0 2.22289,-0.0647 3.59978,-0.18603 0.0392,0.0441 0.0918,0.0771 0.13488,0.11834 -0.0303,0.37994 -0.008,0.74084 0.0708,1.0728 -0.19826,0.0166 -0.39176,0.0318 -0.59531,0.0491 -2.45992,0.20885 -5.5214,0.46879 -6.62595,-0.0403 -1.09537,-0.50483 -1.21735,-1.37245 -1.16479,-1.92702 z m 17.76998,1.27073 c 2.18657,-0.0158 4.20423,0.17551 4.78058,0.97875 0.1838,0.30939 0.35588,0.62388 0.5178,0.94103 -2.3114,-0.87242 -6.32966,-0.49529 -9.21856,-0.22118 -1.08797,0.10372 -2.02864,0.19358 -2.45514,0.16536 -0.77612,-0.0494 -1.37432,-0.30688 -1.73168,-0.74362 -0.22084,-0.27093 -0.3421,-0.61777 -0.37879,-1.01183 0.11148,0.0335 0.21539,0.0728 0.33745,0.0972 0.85584,0.17075 2.45414,0.0727 4.30516,-0.0413 1.15874,-0.0711 2.53123,-0.15487 3.84318,-0.16433 z m -64.015216,0.75809 c 4.738157,0.76976 10.998898,1.23817 19.528006,1.23817 7.07884,0 15.723878,-0.32389 26.33896,-1.06402 -0.0279,0.4572 0.0265,0.99634 0.24236,1.50223 -12.704936,3.31082 -27.563008,4.48612 -38.542863,3.96824 l -0.0052,-0.0631 c -0.03916,0.003 -0.190739,0.0158 -0.430981,0.0419 -7.606283,-0.39296 -13.275504,-1.61171 -14.943791,-3.50366 1.993195,-1.36913 6.131785,-1.93809 7.813477,-2.11977 z M 106.429,131.2599 c 0.0547,0.0286 0.10594,0.0596 0.16485,0.0868 0.6216,0.28646 1.59014,0.3855 2.7342,0.3855 1.3141,0 2.86019,-0.13116 4.37855,-0.25993 0.31926,-0.0268 0.62755,-0.0519 0.93482,-0.077 0.0353,0.0501 0.069,0.1007 0.10749,0.14832 0.14499,0.17709 0.31375,0.33236 0.50178,0.46818 -0.0124,0.20038 -0.0111,0.40301 0.008,0.6041 l -0.36536,0.0357 c -3.23814,0.31362 -6.2973,0.61068 -7.47241,0.0656 -0.71261,-0.33126 -0.93927,-0.93905 -0.99219,-1.45728 z m 18.29139,0.89711 c 2.24461,-0.0158 4.31147,0.23931 4.89428,1.21542 l 0.0207,-0.0134 c 0.10442,0.26318 0.20333,0.52689 0.29611,0.79323 -2.06058,-0.88794 -5.78056,-0.52436 -8.93228,-0.21497 v -5.2e-4 c -1.5441,0.15205 -3.00316,0.29457 -3.46283,0.16898 -0.99378,-0.27129 -1.27565,-1.00787 -1.32292,-1.63194 0.29422,0.0868 0.61107,0.14503 0.95291,0.16692 0.50271,0.0317 1.43299,-0.0563 2.60915,-0.16744 1.34584,-0.1281 3.19911,-0.30398 4.94491,-0.31625 z m -18.7327,1.00975 c 0.0349,0.74225 0.2059,1.31751 0.4532,1.76165 -10.917765,4.92937 -23.45681,7.03821 -33.333882,7.32255 l -0.03152,-0.14159 c -0.177094,0.0392 -0.420304,0.094 -0.714168,0.16175 -6.814256,0.1344 -12.271139,-0.6085 -14.892631,-1.89085 2.786239,-2.36396 8.089161,-3.08384 9.438184,-3.23236 1.709913,0.0843 3.50398,0.12713 5.36453,0.12713 10.570634,0 23.207038,-1.36613 33.716287,-4.10828 z m 9.51311,0.39584 c 0.11536,0.26388 0.27093,0.51081 0.47801,0.72812 0.0378,0.32173 0.14228,0.63058 0.21601,0.81649 -1.01142,0.0409 -2.03829,0.1292 -3.03806,0.21704 -2.08562,0.18486 -4.05522,0.35831 -4.95939,-0.0403 -0.82338,-0.36336 -1.11325,-1.08598 -1.21026,-1.70687 0.01,0.005 0.0182,0.0106 0.0284,0.0155 0.61913,0.28785 1.52399,0.3948 2.65359,0.3948 1.44568,0 3.26062,-0.17636 5.31802,-0.37569 z m 10.52752,1.00666 c 2.15374,-0.0106 4.03794,0.26326 4.42351,1.27331 0.0748,0.28152 0.14522,0.56304 0.21084,0.84491 -1.8408,-0.90735 -5.11956,-0.55281 -7.88428,-0.25012 -1.57585,0.17215 -3.06426,0.33526 -3.65869,0.17157 -1.04669,-0.28751 -1.6092,-1.05662 -1.85156,-1.48983 -0.0201,-0.036 -0.0361,-0.0691 -0.0538,-0.10439 0.0236,0.007 0.0442,0.016 0.0682,0.0227 0.60148,0.16334 1.77986,0.0593 3.8101,-0.14004 1.42224,-0.13953 3.26048,-0.31989 4.93561,-0.32815 z m -18.95801,1.13327 c 0.23918,0.20566 0.49365,0.35662 0.73742,0.46457 0.0409,0.018 0.0899,0.0289 0.13333,0.0455 0.03,0.4452 0.10119,1.08275 0.34778,1.65778 -2.79118,1.34091 -17.889138,8.43296 -30.568677,11.282 l -0.0078,-0.0222 c -0.05115,0.0194 -0.105894,0.0401 -0.159164,0.0599 -1.706386,0.37889 -3.367926,0.68092 -4.948018,0.87954 -6.789914,-0.006 -10.938173,-2.0141 -11.364681,-3.14193 0.524933,-0.8375 6.206999,-2.55022 11.477852,-3.74861 10.17129,-0.23319 23.146981,-2.36692 34.351908,-7.47654 z m 9.65833,0.35294 c 0.3623,0.49071 0.9276,1.02392 1.75028,1.34566 -1.27177,0.0102 -3.01237,0.22677 -5.086,0.51004 -1.23225,0.16863 -2.39579,0.32807 -3.01739,0.339 -0.99765,0.025 -1.32631,-0.66707 -1.4459,-1.81642 0.32103,0.0363 0.66573,0.0563 1.04179,0.0563 0.95321,0 2.06904,-0.099 3.27061,-0.20515 1.15287,-0.10195 2.3429,-0.2044 3.48661,-0.22945 z m 10.47739,1.0139 c 1.80308,-0.0104 3.33201,0.24817 3.77651,1.1715 0.0684,0.37747 0.12995,0.75479 0.18604,1.1312 -1.37407,-0.47095 -3.84501,-0.33569 -6.64042,-0.10956 -0.6343,0.0512 -1.1825,0.0956 -1.52187,0.10336 -1.03117,0.0116 -2.05702,-0.91268 -2.6324,-1.73995 0.70414,-0.0328 1.55161,-0.12519 2.50941,-0.22996 1.35217,-0.1477 2.92034,-0.31849 4.32273,-0.32659 z m -8.37262,1.29191 c 0.46356,0.009 0.8209,0.057 1.0077,0.16019 0.48895,0.61913 1.15463,1.22064 1.93321,1.54978 -1.10102,0.0663 -2.63369,0.27194 -4.5775,0.5457 -1.53317,0.2159 -2.9815,0.41996 -3.74809,0.44184 -1.12607,0.0342 -1.4066,-0.67036 -1.69447,-1.74563 -0.0194,-0.0741 -0.04,-0.1365 -0.0594,-0.20671 0.5394,-0.0631 1.16067,-0.14754 1.82883,-0.23926 1.57189,-0.21458 3.91909,-0.53378 5.30975,-0.50591 z m -9.99628,0.31574 c 0.25082,0.23389 0.57373,0.40742 0.98753,0.48679 -0.73483,0.45756 -1.92004,1.18772 -3.40806,2.07636 -1.28093,0.76483 -2.78315,1.64363 -4.40593,2.56367 -1.62489,0.91652 -3.363635,1.88663 -5.126819,2.8081 -0.877358,0.47025 -1.764391,0.91985 -2.639632,1.36012 -0.86995,0.45015 -1.744211,0.85589 -2.583822,1.26194 -0.836436,0.41416 -1.669193,0.76057 -2.446362,1.11828 -0.777523,0.35737 -1.534687,0.64138 -2.222603,0.93172 -0.6858,0.29774 -1.338913,0.50277 -1.905827,0.7183 -0.28575,0.10302 -0.552843,0.19963 -0.799434,0.28887 -0.251531,0.0759 -0.482259,0.14459 -0.690398,0.20775 -0.835378,0.25152 -1.312581,0.39429 -1.312581,0.39429 0,0 0.482222,-0.12838 1.32395,-0.3545 0.210961,-0.0561 0.444149,-0.11863 0.698149,-0.18707 0.249767,-0.0815 0.519646,-0.17108 0.808219,-0.26562 0.573969,-0.19791 1.236693,-0.38436 1.931665,-0.66094 0.697089,-0.27023 1.465996,-0.53253 2.25516,-0.86662 0.789517,-0.33444 1.636123,-0.65646 2.48667,-1.04593 0.853721,-0.38241 1.742791,-0.76207 2.628263,-1.18752 0.890411,-0.41486 1.793424,-0.83843 2.686658,-1.28364 1.796696,-0.86995 3.568004,-1.78864 5.225004,-2.65824 1.65523,-0.87312 3.18878,-1.70995 4.49688,-2.43809 1.95757,-1.08973 3.41363,-1.93708 4.02146,-2.29444 0.0713,0.26246 0.16172,0.57723 0.30283,0.89297 -2.0447,1.71274 -15.26469,12.45653 -32.059028,18.54512 -0.757414,0.30516 -5.981895,-0.40365 -8.745203,-2.27479 -0.969786,-0.65581 -1.461056,-1.34083 -1.461409,-2.03192 0.09384,-0.73484 4.179208,-2.85848 8.965344,-4.67 13.021027,-2.91359 28.541046,-10.25456 30.989326,-11.43496 z m 19.73213,1.35444 c 1.72424,0.003 2.65018,0.18863 2.76417,0.55552 0.0741,0.60643 0.13767,1.20687 0.19482,1.79989 -0.97684,-0.28504 -2.66487,-0.33118 -5.04259,-0.13539 -0.85443,0.0702 -1.5257,-0.1132 -1.99419,-0.5457 -0.43427,-0.40112 -0.63475,-0.95611 -0.73071,-1.41542 0.25577,-0.0187 0.53922,-0.0417 0.84543,-0.0667 1.60655,-0.13005 2.92852,-0.19398 3.96307,-0.19224 z m -6.01101,0.97462 c 0.16532,0.001 0.30389,0.009 0.40928,0.0264 0.16475,0.47625 0.42768,0.97522 0.86971,1.38338 0.36478,0.33655 0.80213,0.56492 1.30483,0.69298 -1.15817,-0.14711 -2.81689,0.22153 -4.66121,0.63252 -1.35608,0.30233 -2.75932,0.61611 -3.82612,0.66197 -1.79635,0.0716 -2.28213,-1.19951 -2.45463,-2.4293 0.83396,-0.0783 1.9579,-0.23678 3.13159,-0.40153 1.59989,-0.22595 4.06931,-0.57354 5.22655,-0.56637 z m -10.8784,0.35088 c 0.3048,0.31715 0.71914,0.56041 1.29346,0.63872 -0.44238,0.43568 -1.74901,1.70977 -3.60392,3.39462 -1.15393,1.0467 -2.51699,2.24924 -4.00854,3.5016 -0.75071,0.61878 -1.51727,1.27324 -2.32337,1.90117 -0.40076,0.31822 -0.80407,0.63894 -1.20871,0.96067 -0.41275,0.31256 -0.82694,0.62586 -1.24075,0.93948 -0.821975,0.63605 -1.670579,1.23471 -2.50631,1.82314 -0.825499,0.60607 -1.681834,1.13422 -2.49287,1.67432 -0.807156,0.54681 -1.637526,0.99123 -2.39882,1.45831 -0.765528,0.46143 -1.53267,0.81537 -2.21847,1.18649 -0.172861,0.09 -0.342338,0.1773 -0.508496,0.26303 -0.170745,0.0734 -0.338113,0.14598 -0.500744,0.21653 -0.326319,0.14182 -0.634836,0.2761 -0.925525,0.40204 -0.2921,0.12312 -0.561593,0.24884 -0.817004,0.34726 -0.260704,0.0857 -0.499983,0.16371 -0.716236,0.23462 -0.866069,0.28258 -1.36064,0.4439 -1.36064,0.4439 0,0 0.499213,-0.14745 1.373042,-0.40463 0.219075,-0.0649 0.46166,-0.13684 0.725538,-0.21446 0.258586,-0.0914 0.531875,-0.2083 0.827856,-0.32401 0.295275,-0.11818 0.609089,-0.24375 0.939994,-0.37569 0.165806,-0.0663 0.336481,-0.13391 0.510047,-0.20412 0.168628,-0.0808 0.341244,-0.16373 0.517281,-0.24805 0.698147,-0.35207 1.480663,-0.68609 2.26136,-1.12706 0.776816,-0.44591 1.62603,-0.87052 2.45153,-1.39475 0.830086,-0.51788 1.70669,-1.02519 2.552298,-1.60868 0.856898,-0.56727 1.727219,-1.14418 2.571419,-1.75907 0.42475,-0.30268 0.84892,-0.60546 1.27331,-0.90744 0.41522,-0.3115 0.82974,-0.62167 1.24178,-0.92965 0.82868,-0.60783 1.61659,-1.24237 2.38952,-1.84279 1.53494,-1.21427 2.93955,-2.3827 4.12947,-3.40082 1.65911,-1.42134 2.90168,-2.55086 3.50211,-3.10472 0.13723,0.50129 0.3281,0.92612 0.57257,1.27537 -2.46168,2.77636 -15.86911,17.5982 -25.25582,21.98781 -2.674056,0.80434 -6.589094,0.1816 -9.124508,-1.45211 -1.096786,-0.70662 -1.763195,-1.52424 -1.881022,-2.30529 0.05962,-0.78634 3.405624,-2.85734 6.537585,-4.32066 l -10e-4,-0.003 c 14.342887,-6.14362 25.279135,-14.93743 27.422615,-16.72249 z m 17.2067,1.74356 c 1.90129,-0.0128 2.60893,0.23393 2.73937,0.37207 0.03,0.34255 0.0579,0.68185 0.0858,1.01699 0.0257,0.31256 0.0521,0.62239 0.0785,0.92966 -0.78317,-0.24941 -1.84042,-0.17879 -2.81585,-0.11317 -0.75353,0.0515 -1.53181,0.10334 -1.9234,-0.0191 -0.59266,-0.18486 -0.65516,-1.22327 -0.69608,-1.91048 -0.004,-0.0561 -0.007,-0.10248 -0.0103,-0.15399 0.0734,-0.003 0.14483,-0.004 0.21962,-0.009 0.9219,-0.0757 1.68857,-0.1089 2.32234,-0.11317 z m -4.26796,0.93896 c 0.34565,1.3e-4 0.63313,0.0387 0.83509,0.13074 0.0967,0.76588 0.35604,1.61193 1.14309,1.95906 -1.07069,0.0356 -2.34425,0.41967 -3.67316,0.82889 -1.21109,0.37289 -2.46305,0.75857 -3.40496,0.78961 -0.64982,0.0159 -1.18336,-0.19528 -1.58905,-0.64544 -0.44944,-0.49882 -0.67392,-1.20227 -0.74518,-1.77095 1.05869,-0.10266 2.30026,-0.37866 3.50676,-0.64854 1.33192,-0.29685 2.89048,-0.64376 3.92741,-0.64337 z m -9.95443,0.82114 c 0.34749,0.2406 0.75529,0.39401 1.2206,0.46457 -0.11007,0.16263 -0.23966,0.35322 -0.39171,0.57723 -0.50624,0.73131 -1.24192,1.76912 -2.15491,2.99361 -1.82245,2.45075 -4.36666,5.64152 -7.15925,8.61085 -0.6978,0.74189 -1.41204,1.4686 -2.12959,2.16886 -0.72213,0.69603 -1.44414,1.36977 -2.16627,1.99419 -0.72108,0.62653 -1.43275,1.21452 -2.13372,1.7384 -0.34643,0.2674 -0.688941,0.52153 -1.030428,0.75189 -0.335494,0.23848 -0.664154,0.46282 -0.990121,0.66249 -0.639586,0.41804 -1.254561,0.75739 -1.804541,1.0449 -0.278695,0.13794 -0.539178,0.26713 -0.780831,0.38602 -0.24765,0.10336 -0.475943,0.19884 -0.681612,0.28422 -0.407811,0.1845 -0.750768,0.26782 -0.975134,0.35037 -0.227189,0.0755 -0.349333,0.11524 -0.349333,0.11524 0,0 0.123128,-0.0363 0.352433,-0.10439 0.227189,-0.0762 0.573047,-0.15014 0.986503,-0.32195 0.20955,-0.0804 0.441451,-0.16879 0.692981,-0.2651 0.245533,-0.11254 0.511151,-0.2345 0.794784,-0.36431 0.560564,-0.2727 1.188001,-0.59522 1.843815,-0.99633 0.333727,-0.19119 0.671129,-0.40681 1.015442,-0.63717 0.349957,-0.22225 0.701839,-0.46679 1.058849,-0.72502 0.720723,-0.50694 1.454493,-1.07766 2.197803,-1.6862 0.74541,-0.60607 1.49127,-1.26344 2.2381,-1.94148 0.74295,-0.68333 1.48372,-1.39307 2.20762,-2.11874 2.89701,-2.90371 5.55066,-6.03799 7.45742,-8.45064 1.05128,-1.32539 1.87919,-2.43118 2.4133,-3.16002 0.15098,0.50588 0.39661,1.02446 0.77514,1.46296 -1.54164,2.60103 -12.56005,20.79425 -21.309292,24.70444 -1.46685,0.0699 -7.646381,0.16047 -8.66097,-3.06286 0.1651,-0.34502 1.209787,-1.21498 1.781287,-1.68982 0.671336,-0.55845 1.095533,-0.91795 1.308964,-1.19735 9.508772,-5.06659 21.856661,-18.74018 24.372671,-21.58886 z m 15.66623,1.34927 c 0.71846,-0.002 1.36458,0.0775 1.56941,0.39016 0.0868,0.87136 0.18765,1.70736 0.32453,2.4877 -0.36865,-0.0138 -0.75924,0.0605 -1.14412,0.13488 -0.47589,0.0914 -0.96764,0.1883 -1.45624,0.14314 -0.0829,-0.007 -0.16203,-0.0235 -0.23823,-0.0439 -0.09,-0.0395 -0.17897,-0.0728 -0.26716,-0.10284 -0.15029,-0.0794 -0.28392,-0.18945 -0.39998,-0.33021 -0.42863,-0.52105 -0.61235,-1.42979 -0.53227,-2.57349 0.27517,-0.0113 0.55845,-0.0266 0.85266,-0.046 0.40336,-0.0274 0.86032,-0.0581 1.2914,-0.0594 z m -3.50987,0.88057 c 0.13743,0.003 0.26736,0.0156 0.38809,0.0377 0.0339,0.78704 0.203,1.45498 0.50075,1.97921 -0.75248,0.1143 -1.47037,0.4659 -2.17558,0.81339 -0.76482,0.37641 -1.55663,0.76485 -2.38848,0.84387 -0.99343,0.0945 -1.60996,-0.34563 -1.95286,-0.73122 -0.39475,-0.44309 -0.60246,-1.01593 -0.62786,-1.44384 0.83678,-0.15558 1.74966,-0.43383 2.64325,-0.709 1.30973,-0.40375 2.65075,-0.81286 3.61269,-0.79013 z m -8.89868,1.23455 c 0.44415,0.25647 0.95347,0.38912 1.51051,0.38912 0.0307,0 0.0615,-7.4e-4 0.0925,-0.001 -0.29528,0.61243 -1.07546,2.20329 -2.21176,4.32066 -1.46861,2.7298 -3.51944,6.33131 -5.8446,9.7529 -0.58173,0.85478 -1.1727,1.70327 -1.78335,2.51819 -0.6022,0.8202 -1.22249,1.60652 -1.8402,2.35335 -0.61701,0.74823 -1.24161,1.44628 -1.85157,2.09186 -0.30621,0.32244 -0.61855,0.62022 -0.91312,0.91726 -0.30727,0.28292 -0.60464,0.55557 -0.89039,0.81803 -0.2988,0.24659 -0.58548,0.4829 -0.85782,0.70797 -0.28081,0.21413 -0.55594,0.40508 -0.81029,0.59169 -0.52634,0.34395 -0.99116,0.64169 -1.4025,0.83148 -0.39864,0.21802 -0.73432,0.33772 -0.96221,0.42168 -0.227192,0.0864 -0.348302,0.13229 -0.348302,0.13229 0,0 0.122256,-0.0424 0.351912,-0.12247 0.23072,-0.0776 0.57029,-0.1872 0.97669,-0.39429 0.41945,-0.17816 0.89375,-0.46389 1.4335,-0.79479 0.2607,-0.17992 0.54445,-0.36358 0.83303,-0.57102 0.2801,-0.21837 0.57534,-0.44829 0.88366,-0.68782 0.29528,-0.25541 0.60164,-0.52081 0.91984,-0.79633 0.3048,-0.28999 0.62802,-0.58155 0.94517,-0.89659 0.63217,-0.63216 1.28237,-1.31674 1.92443,-2.05052 0.64276,-0.73342 1.2904,-1.50639 1.92081,-2.31355 0.63712,-0.80221 1.25608,-1.63717 1.86604,-2.47995 3.76837,-5.21935 6.88065,-10.84778 8.10338,-13.13977 0.13617,0.26846 0.30363,0.52596 0.50436,0.75138 0.12453,0.1397 0.26055,0.26293 0.40308,0.37723 -1.16911,2.36255 -11.29956,22.63757 -16.39332,25.71626 -2.90019,0.56127 -7.640497,0.28062 -8.759155,-1.67483 -0.03775,-0.26282 0.544002,-1.24783 1.439705,-2.26136 v -5.2e-4 c 8.79263,-4.73922 18.95022,-21.44546 20.75997,-24.50651 z m 10.27793,1.70945 c 0.31998,0.002 0.63923,0.0762 0.96841,0.25064 l 0.004,-0.007 c 0.0395,0.22366 0.0731,0.45751 0.1049,0.70693 0.0561,0.4385 0.12133,0.93929 0.26562,1.38804 -0.29316,0.0741 -0.59898,0.20884 -0.93483,0.36018 -0.54575,0.24589 -1.22453,0.55295 -2.19573,0.78755 -0.56515,0.13617 -0.99894,0.10054 -1.32808,-0.11007 -0.58597,-0.37429 -0.77385,-1.26833 -0.89556,-1.87793 0.62477,-0.18555 1.20545,-0.46821 1.77096,-0.7462 0.82849,-0.40722 1.53621,-0.7555 2.24017,-0.7519 z m 3.77238,0.0279 c 0.19434,-0.0138 0.34791,-5.8e-4 0.46715,0.0527 0.17039,0.71085 0.38179,1.36376 0.65836,1.93632 -0.15875,0.0554 -0.32017,0.12128 -0.47646,0.18655 v -5.2e-4 c -0.47166,0.19508 -1.05877,0.43822 -1.55442,0.43822 -0.12136,0 -0.22004,-0.0284 -0.30541,-0.0873 l 0.002,-0.002 c -0.0106,-0.007 -0.0201,-0.0106 -0.03,-0.0176 -0.25648,-0.2039 -0.37274,-0.71897 -0.49868,-1.70532 -0.0229,-0.17711 -0.0466,-0.3557 -0.0734,-0.53279 0.39123,-0.0261 0.76168,-0.0946 1.1007,-0.16019 0.28064,-0.0538 0.5157,-0.0942 0.71004,-0.10801 z m -10.25777,1.46658 c 0.36442,0.13794 0.7572,0.21342 1.16995,0.21342 0.11607,0 0.23338,-0.006 0.35192,-0.017 0.002,-3.6e-4 0.005,-7.5e-4 0.007,-0.001 0.0109,0.055 0.0231,0.11418 0.0362,0.17416 -0.18874,0.4907 -0.81765,2.10728 -1.76062,4.32273 -1.13841,2.67229 -2.7359,6.20647 -4.54494,9.633 -0.90312,1.71344 -1.86262,3.397 -2.83911,4.92735 -0.48859,0.76412 -0.976,1.49497 -1.46812,2.16524 -0.24307,0.33796 -0.48308,0.66313 -0.72967,0.96687 -0.23813,0.31079 -0.47839,0.60272 -0.71934,0.87436 -0.23213,0.2794 -0.46844,0.53449 -0.70021,0.7705 -0.22367,0.24412 -0.45047,0.46117 -0.67025,0.65732 -0.21378,0.2039 -0.42152,0.38471 -0.62684,0.5364 -0.20214,0.15522 -0.37912,0.31171 -0.56327,0.41755 -0.1785,0.1143 -0.33781,0.21512 -0.47645,0.30437 -0.14535,0.0766 -0.27426,0.13335 -0.37621,0.18346 -0.20532,0.0984 -0.31419,0.14986 -0.31419,0.14986 0,0 0.1107,-0.0483 0.31884,-0.14005 0.10372,-0.0473 0.23441,-0.0999 0.38292,-0.1726 0.14217,-0.0847 0.30509,-0.18193 0.48783,-0.29094 0.18874,-0.10089 0.3708,-0.25107 0.57929,-0.401 0.21167,-0.14641 0.42651,-0.32228 0.64699,-0.5209 0.2286,-0.19014 0.46309,-0.40215 0.69557,-0.64027 0.2413,-0.23107 0.48698,-0.48005 0.72863,-0.75345 0.25154,-0.26528 0.50145,-0.55235 0.75086,-0.85679 0.25788,-0.29845 0.50959,-0.61819 0.7643,-0.94981 0.51611,-0.65969 1.02884,-1.37864 1.5446,-2.13217 1.02906,-1.50813 2.04609,-3.17081 3.00706,-4.86379 2.91465,-5.12268 5.33027,-10.49389 6.33604,-12.81059 0.19156,0.36618 0.45401,0.70661 0.83148,0.94827 0.0448,0.0289 0.094,0.0503 0.14056,0.0754 -0.98849,2.57705 -7.72453,20.01104 -10.78487,24.60315 -0.77012,1.00682 -2.86206,1.72066 -5.08703,1.73478 h -0.0713 c -1.96991,0 -3.5804,-0.53433 -4.34134,-1.43815 0.0406,-0.3683 0.72427,-1.46781 1.1529,-1.98851 l -0.0196,-0.0165 c 5.47123,-4.22558 14.85427,-23.01345 16.16026,-25.66458 z m 11.89436,1.37149 c 0.46814,0.64664 1.06784,1.13924 1.84537,1.43557 -0.57926,0.30762 -1.29268,0.65059 -2.09032,0.97513 -0.19367,0.0649 -0.35072,0.0545 -0.51159,-0.0372 -0.50623,-0.28928 -0.84916,-1.2463 -0.98392,-1.75183 0.40322,-0.10336 0.78868,-0.25549 1.12241,-0.39378 0.20778,-0.0861 0.47165,-0.19367 0.61805,-0.22789 z m -3.64732,0.38241 c 0.0608,0.002 0.11303,0.0159 0.1633,0.0413 0.20108,0.16722 0.45428,0.27647 0.77566,0.30541 0.0716,0.30656 0.29521,1.12871 0.75241,1.78593 -0.26565,0.12136 -0.51654,0.21181 -0.75396,0.27389 l -0.0248,-0.005 c 0,0 -0.001,0.007 -0.002,0.0103 -0.52987,0.13407 -0.98858,0.12118 -1.36994,-0.0439 -0.5595,-0.24341 -0.97872,-0.82179 -1.25212,-1.71256 0.28681,-0.11536 0.53717,-0.22732 0.75448,-0.32504 v 5.2e-4 c 0.51435,-0.23205 0.77406,-0.33622 0.95653,-0.33073 z m -2.66961,0.99477 c -0.0716,0.19756 -0.17717,0.48856 -0.31264,0.86144 -0.26247,0.74225 -0.62113,1.80016 -1.03353,3.07475 -0.82832,2.54811 -1.8692,5.95675 -2.99103,9.33741 -1.12007,3.37891 -2.3387,6.73023 -3.52226,9.12348 -0.29528,0.59796 -0.58663,1.13605 -0.8692,1.59784 -0.28399,0.46037 -0.54791,0.85433 -0.79944,1.15031 -0.11818,0.15522 -0.23499,0.28365 -0.34364,0.38913 -0.10407,0.10936 -0.19181,0.20336 -0.27647,0.2651 -0.16158,0.13264 -0.24805,0.2036 -0.24805,0.2036 0,0 0.0888,-0.068 0.25425,-0.19534 0.0875,-0.0593 0.17866,-0.15012 0.28732,-0.25631 0.11253,-0.10301 0.23394,-0.2278 0.35812,-0.37879 0.26317,-0.29033 0.54192,-0.67613 0.84284,-1.13016 0.30021,-0.45473 0.61131,-0.98543 0.92811,-1.57562 1.27035,-2.36432 2.60704,-5.68605 3.84317,-9.03355 1.23861,-3.34857 2.39555,-6.72389 3.30678,-9.23355 0.45296,-1.25412 0.84552,-2.29446 1.12809,-3.01377 0.007,-0.0166 0.0124,-0.0309 0.0191,-0.0475 0.29703,0.46673 0.66434,0.81346 1.09967,1.03818 -0.95497,3.54577 -6.17655,22.79119 -7.97678,26.47383 -3.26354,1.17582 -6.7442,0.70733 -7.49773,-0.49247 -0.29951,-0.47696 0.34571,-1.63868 0.65474,-2.19677 0.084,-0.15099 0.1548,-0.27992 0.20877,-0.38964 0.13018,-0.12382 0.2503,-0.25143 0.35296,-0.38654 3.21627,-4.82424 10.05346,-22.60033 10.93576,-24.90855 0.0543,0.004 0.10704,0.0103 0.16278,0.0103 0.26176,0 0.54017,-0.0357 0.83509,-0.10697 0.23248,-0.0561 0.44823,-0.11668 0.65319,-0.17983 z m 8.32094,1.06298 c -0.4953,3.47028 -0.0583,9.52374 0.36897,15.40526 0.40498,5.57318 0.78782,10.84163 0.30593,13.08706 -0.8696,1.10808 -4.10858,2.39641 -5.81567,2.04329 -0.56339,-0.11713 -0.78322,-0.36934 -0.87953,-0.60359 2.38901,-3.4858 3.6032,-25.35817 3.7884,-28.98014 0.10584,-0.0162 0.2119,-0.0403 0.32091,-0.078 0.7112,-0.28892 1.35854,-0.59092 1.91099,-0.87385 z m -3.21479,0.78135 c 0.008,0.004 0.0169,0.005 0.0243,0.01 -0.53058,10.53113 -1.93425,26.66229 -3.66851,28.66078 -2.13325,1.2386 -5.84546,1.14613 -7.4259,0.20774 -0.002,-0.25541 0.19193,-0.91585 0.44028,-1.48311 1.79776,-3.43042 7.11869,-23.06518 8.12199,-26.79475 0.10301,0.0109 0.20248,0.0289 0.30902,0.0289 0.16757,0 0.33983,-0.0134 0.51728,-0.0398 -0.008,0.0554 -0.017,0.10901 -0.0269,0.16898 -0.10619,0.762 -0.25757,1.85106 -0.43925,3.15846 -0.35066,2.61091 -0.78151,6.09216 -1.33325,9.55291 -0.55175,3.45792 -1.23769,6.90463 -2.11047,9.38289 -0.21378,0.62054 -0.44366,1.17627 -0.67438,1.65674 -0.23671,0.4759 -0.46259,0.8848 -0.69401,1.1896 -0.10619,0.15946 -0.21461,0.29118 -0.31833,0.39842 -0.0981,0.11183 -0.18135,0.20699 -0.26355,0.26872 -0.15734,0.13335 -0.24132,0.20412 -0.24132,0.20412 0,0 0.0863,-0.0683 0.24752,-0.19637 0.0854,-0.0589 0.17243,-0.15092 0.27544,-0.25993 0.10795,-0.10442 0.22129,-0.23353 0.33383,-0.39016 0.24377,-0.29951 0.48495,-0.70243 0.74001,-1.17409 0.24871,-0.4759 0.50038,-1.02837 0.73639,-1.64538 0.96449,-2.4638 1.77157,-5.90228 2.44326,-9.35033 0.6731,-3.45193 1.2239,-6.9226 1.66346,-9.51621 0.22613,-1.29364 0.41412,-2.37167 0.5457,-3.12591 0.0444,-0.23566 0.0821,-0.43494 0.11421,-0.60462 0.2226,-0.0857 0.44962,-0.18647 0.68316,-0.30747 z"
         style="fill:#0e2877;fill-opacity:1;fill-rule:nonzero;stroke:none;stroke-width:0.35277778" />
    </g>
    <g
       aria-label="lacewing"
       transform="matrix(0.42379423,0,0,0.42379423,-56.563105,47.283672)"
       style="font-style:normal;font-weight:normal;font-size:13.33333302px;line-height:1.25;font-family:sans-serif;letter-spacing:19.36000061px;word-spacing:0px;fill:#0e2877;fill-opacity:1;stroke:none"
       id="flowRoot4555">
      <path
         d="m 355.21154,182.57697 h 3.62666 v 32.64 q 0,1.54667 0.85334,2.45333 0.85333,0.85334 2.4,0.85334 0.58666,0 1.38666,-0.16 0.8,-0.16 1.49334,-0.42667 l 0.64,2.93333 q -1.01334,0.42667 -2.50667,0.69334 -1.44,0.26666 -2.50667,0.26666 -2.50666,0 -3.94666,-1.38666 -1.44,-1.44 -1.44,-4 z"
         style="font-style:normal;font-variant:normal;font-weight:normal;font-stretch:normal;font-size:53.33333588px;font-family:Raleway;-inkscape-font-specification:Raleway;letter-spacing:0px;fill:#0e2877;fill-opacity:1"
         id="path4519"
         inkscape:connector-curvature="0" />
      <path
         d="m 376.47404,222.04364 q -2.13334,0 -3.89334,-0.64 -1.76,-0.69334 -3.04,-1.86667 -1.22666,-1.17333 -1.92,-2.72 -0.69333,-1.54667 -0.69333,-3.25333 0,-1.92 0.85333,-3.46667 0.85334,-1.6 2.4,-2.72 1.54667,-1.12 3.68,-1.70667 2.18667,-0.64 4.8,-0.64 2.08,0 4.26667,0.37334 2.18667,0.37333 3.89334,1.06666 v -2.50666 q 0,-3.68 -2.13334,-5.81334 -2.08,-2.18666 -5.65333,-2.18666 -2.24,0 -4.48,0.85333 -2.18667,0.85333 -4.48,2.45333 l -1.28,-2.4 q 2.72,-1.81333 5.28,-2.72 2.56,-0.90666 5.33333,-0.90666 5.06667,0 8.05334,2.93333 2.98666,2.93333 2.98666,8.10667 v 12.53333 q 0,1.49333 1.28,1.49333 v 3.2 q -0.42666,0.0533 -0.8,0.0533 -0.37333,0.0533 -0.64,0.0533 -1.06666,0 -1.97333,-0.64 -0.85333,-0.64 -0.96,-1.92 l -0.10667,-2.18667 q -1.81333,2.45334 -4.8,3.84 -2.93333,1.33334 -5.97333,1.33334 z m 0.90666,-2.77334 q 2.4,0 4.74667,-1.01333 2.4,-1.06667 3.78667,-2.88 0.37333,-0.48 0.64,-1.01333 0.26667,-0.58667 0.26667,-1.06667 v -4.53333 q -1.81334,-0.69334 -3.78667,-1.06667 -1.97334,-0.37333 -3.84,-0.37333 -3.89334,0 -6.34667,1.6 -2.4,1.54666 -2.4,4.32 0,1.12 0.42667,2.18666 0.42666,1.06667 1.28,1.92 0.90666,0.85334 2.18666,1.38667 1.28,0.53333 3.04,0.53333 z"
         style="font-style:normal;font-variant:normal;font-weight:normal;font-stretch:normal;font-size:53.33333588px;font-family:Raleway;-inkscape-font-specification:Raleway;letter-spacing:0px;fill:#0e2877;fill-opacity:1"
         id="path4521"
         inkscape:connector-curvature="0" />
      <path
         d="m 396.57154,207.53697 q 0,-2.93333 1.01333,-5.54667 1.01334,-2.61333 2.82667,-4.53333 1.86667,-1.97333 4.42667,-3.09333 2.56,-1.12 5.65333,-1.12 3.94667,0 6.88,1.81333 2.93333,1.76 4.42667,4.8 l -3.52,1.12 q -1.17334,-2.13333 -3.25334,-3.30667 -2.08,-1.22666 -4.64,-1.22666 -2.13333,0 -4,0.85333 -1.81333,0.85333 -3.2,2.34667 -1.33333,1.44 -2.13333,3.46666 -0.74667,2.02667 -0.74667,4.42667 0,2.34667 0.8,4.42667 0.8,2.08 2.18667,3.62666 1.38667,1.49334 3.2,2.4 1.86667,0.85334 3.94667,0.85334 1.33333,0 2.61333,-0.37334 1.33333,-0.37333 2.45333,-1.01333 1.12,-0.69333 1.92,-1.54667 0.8,-0.85333 1.12,-1.81333 l 3.52,1.06667 q -0.58666,1.49333 -1.70666,2.77333 -1.12,1.22667 -2.66667,2.18667 -1.49333,0.90666 -3.36,1.38666 -1.81333,0.53334 -3.78667,0.53334 -3.04,0 -5.6,-1.12 -2.56,-1.17334 -4.42666,-3.14667 -1.86667,-2.02667 -2.93334,-4.64 -1.01333,-2.61333 -1.01333,-5.6 z"
         style="font-style:normal;font-variant:normal;font-weight:normal;font-stretch:normal;font-size:53.33333588px;font-family:Raleway;-inkscape-font-specification:Raleway;letter-spacing:0px;fill:#0e2877;fill-opacity:1"
         id="path4523"
         inkscape:connector-curvature="0" />
      <path
         d="m 439.91987,222.04364 q -3.04,0 -5.6,-1.12 -2.56,-1.17334 -4.42666,-3.14667 -1.86667,-2.02667 -2.93334,-4.64 -1.01333,-2.61333 -1.01333,-5.6 0,-2.93333 1.01333,-5.49333 1.06667,-2.61334 2.93334,-4.53334 1.86666,-1.97333 4.37333,-3.09333 2.56,-1.17333 5.6,-1.17333 3.04,0 5.54667,1.17333 2.56,1.12 4.37333,3.09333 1.81333,1.97334 2.82667,4.53334 1.01333,2.56 1.01333,5.44 0,0.42666 -0.0533,0.85333 0,0.42667 -0.0533,0.58667 h -23.73333 q 0.16,2.24 1.01333,4.16 0.90667,1.86666 2.24,3.25333 1.38667,1.38667 3.14667,2.18667 1.81333,0.74666 3.84,0.74666 1.38667,0 2.72,-0.37333 1.33333,-0.37333 2.45333,-1.01333 1.12,-0.64 1.97334,-1.54667 0.90666,-0.96 1.38666,-2.08 l 3.14667,0.85333 q -0.64,1.54667 -1.81333,2.82667 -1.17334,1.22667 -2.72,2.18667 -1.54667,0.90666 -3.41334,1.38666 -1.86666,0.53334 -3.84,0.53334 z m 10.24,-15.89334 q -0.16,-2.24 -1.06666,-4.05333 -0.85334,-1.86667 -2.24,-3.2 -1.33334,-1.33333 -3.14667,-2.08 -1.81333,-0.74667 -3.84,-0.74667 -2.02667,0 -3.84,0.74667 -1.81333,0.74667 -3.2,2.08 -1.33333,1.33333 -2.18667,3.2 -0.8,1.86667 -0.96,4.05333 z"
         style="font-style:normal;font-variant:normal;font-weight:normal;font-stretch:normal;font-size:53.33333588px;font-family:Raleway;-inkscape-font-specification:Raleway;letter-spacing:0px;fill:#0e2877;fill-opacity:1"
         id="path4525"
         inkscape:connector-curvature="0" />
      <path
         d="m 493.48071,193.72364 h 3.52 l -11.89333,27.78666 h -3.04 l -5.92,-14.18666 -5.92,14.18666 h -3.04 l -11.89334,-27.78666 h 3.46667 l 10.13333,24.05333 5.28,-12.69333 -4.74666,-11.30667 h 3.09333 l 3.62667,9.06667 3.57333,-9.06667 h 3.09333 l -4.69333,11.30667 5.28,12.69333 z"
         style="font-style:normal;font-variant:normal;font-weight:normal;font-stretch:normal;font-size:53.33333588px;font-family:Raleway;-inkscape-font-specification:Raleway;letter-spacing:0px;fill:#0e2877;fill-opacity:1"
         id="path4527"
         inkscape:connector-curvature="0" />
      <path
         d="m 501.71821,221.5103 v -27.78666 h 3.62667 v 27.78666 z m 0,-33.6 v -5.33333 h 3.62667 v 5.33333 z"
         style="font-style:normal;font-variant:normal;font-weight:normal;font-stretch:normal;font-size:53.33333588px;font-family:Raleway;-inkscape-font-specification:Raleway;letter-spacing:0px;fill:#0e2877;fill-opacity:1"
         id="path4529"
         inkscape:connector-curvature="0" />
      <path
         d="m 536.53655,221.5103 h -3.62666 v -15.52 q 0,-4.96 -1.44,-7.2 -1.44,-2.24 -4.48,-2.24 -1.6,0 -3.2,0.58667 -1.6,0.58667 -2.98667,1.65333 -1.38667,1.06667 -2.45333,2.56 -1.01334,1.44 -1.54667,3.14667 v 17.01333 h -3.62667 v -27.78666 h 3.30667 v 6.29333 q 0.85333,-1.49333 2.08,-2.72 1.28,-1.28 2.82667,-2.18667 1.54666,-0.90666 3.25333,-1.38666 1.76,-0.48 3.62667,-0.48 2.34666,0 3.89333,0.85333 1.6,0.85333 2.56,2.4 0.96,1.54667 1.38667,3.78667 0.42666,2.24 0.42666,4.96 z"
         style="font-style:normal;font-variant:normal;font-weight:normal;font-stretch:normal;font-size:53.33333588px;font-family:Raleway;-inkscape-font-specification:Raleway;letter-spacing:0px;fill:#0e2877;fill-opacity:1"
         id="path4531"
         inkscape:connector-curvature="0" />
      <path
         d="m 555.26321,221.88364 q -2.88,0 -5.28,-1.17334 -2.34666,-1.22666 -4.10666,-3.2 -1.70667,-1.97333 -2.66667,-4.53333 -0.96,-2.56 -0.96,-5.28 0,-2.88 0.90667,-5.49333 0.96,-2.66667 2.66666,-4.64 1.70667,-1.97334 4.05334,-3.14667 2.4,-1.17333 5.28,-1.17333 3.57333,0 6.18666,1.81333 2.61334,1.76 4.48,4.48 v -5.81333 h 3.25334 v 27.89333 q 0,2.88 -1.12,5.06667 -1.06667,2.24 -2.93334,3.73333 -1.81333,1.49333 -4.32,2.24 -2.50666,0.74667 -5.28,0.74667 -4.74666,0 -7.68,-1.70667 -2.93333,-1.70667 -4.74666,-4.58667 l 2.24,-1.76 q 1.65333,2.66667 4.37333,3.89334 2.72,1.28 5.81333,1.28 2.02667,0 3.84,-0.58667 1.86667,-0.53333 3.2,-1.65333 1.38667,-1.06667 2.18667,-2.77334 0.8,-1.65333 0.8,-3.89333 v -5.49333 q -1.65333,2.66666 -4.42667,4.21333 -2.72,1.54667 -5.76,1.54667 z m 1.01334,-3.04 q 1.6,0 3.14666,-0.58667 1.54667,-0.58667 2.77334,-1.54667 1.28,-1.01333 2.13333,-2.24 0.85333,-1.22666 1.12,-2.50666 v -8.58667 q -0.58667,-1.49333 -1.65333,-2.77333 -1.01334,-1.28 -2.29334,-2.18667 -1.28,-0.90667 -2.77333,-1.44 -1.44,-0.53333 -2.93333,-0.53333 -2.34667,0 -4.16,1.01333 -1.81334,0.96 -3.09334,2.56 -1.28,1.6 -1.97333,3.62667 -0.64,2.02666 -0.64,4.10666 0,2.24 0.8,4.26667 0.8,2.02667 2.18667,3.57333 1.38666,1.49334 3.25333,2.4 1.92,0.85334 4.10667,0.85334 z"
         style="font-style:normal;font-variant:normal;font-weight:normal;font-stretch:normal;font-size:53.33333588px;font-family:Raleway;-inkscape-font-specification:Raleway;letter-spacing:0px;fill:#0e2877;fill-opacity:1"
         id="path4533"
         inkscape:connector-curvature="0" />
    </g>
  </g>
</svg>
