<?xml version="1.0" encoding="UTF-8" standalone="no"?>
<!-- Created with Inkscape (http://www.inkscape.org/) -->

<svg
   xmlns:dc="http://purl.org/dc/elements/1.1/"
   xmlns:cc="http://creativecommons.org/ns#"
   xmlns:rdf="http://www.w3.org/1999/02/22-rdf-syntax-ns#"
   xmlns:svg="http://www.w3.org/2000/svg"
   xmlns="http://www.w3.org/2000/svg"
   xmlns:sodipodi="http://sodipodi.sourceforge.net/DTD/sodipodi-0.dtd"
   xmlns:inkscape="http://www.inkscape.org/namespaces/inkscape"
   width="645.71429"
   height="645.71429"
   viewBox="0 0 170.84525 170.84525"
   version="1.1"
   id="svg8"
   inkscape:version="0.92.1 r15371"
   sodipodi:docname="logo.svg"
   inkscape:export-filename="/home/palash/Desktop/lwing_logo.png"
   inkscape:export-xdpi="248.10001"
   inkscape:export-ydpi="248.10001">
  <defs
     id="defs2" />
  <sodipodi:namedview
     id="base"
     pagecolor="#ffffff"
     bordercolor="#666666"
     borderopacity="1.0"
     inkscape:pageopacity="0.0"
     inkscape:pageshadow="2"
     inkscape:zoom="0.49497475"
     inkscape:cx="58.261147"
     inkscape:cy="279.04426"
     inkscape:document-units="mm"
     inkscape:current-layer="layer1"
     showgrid="false"
     fit-margin-top="0"
     fit-margin-left="0"
     fit-margin-right="0"
     fit-margin-bottom="0"
     units="px"
     inkscape:window-width="1366"
     inkscape:window-height="700"
     inkscape:window-x="0"
     inkscape:window-y="34"
     inkscape:window-maximized="1" />
  <metadata
     id="metadata5">
    <rdf:RDF>
      <cc:Work
         rdf:about="">
        <dc:format>image/svg+xml</dc:format>
        <dc:type
           rdf:resource="http://purl.org/dc/dcmitype/StillImage" />
        <dc:title />
      </cc:Work>
    </rdf:RDF>
  </metadata>
  <g
     inkscape:label="Layer 1"
     inkscape:groupmode="layer"
     id="layer1"
     transform="translate(-24.190475,-47.535713)">
    <flowRoot
       xml:space="preserve"
       id="flowRoot4487"
       style="font-style:normal;font-weight:normal;font-size:13.33333302px;line-height:1.25;font-family:sans-serif;letter-spacing:19.36000061px;word-spacing:0px;fill:#ffffff;fill-opacity:1;stroke:none"
       transform="scale(0.26458333)"><flowRegion
         id="flowRegion4489"
         style="fill:#ffffff"><rect
           id="rect4491"
           width="377.14285"
           height="251.42857"
           x="231.42857"
           y="402.51968"
           style="fill:#ffffff" /></flowRegion><flowPara
         id="flowPara4493" /></flowRoot>    <g
       id="g4508">
      <rect
         ry="17.386906"
         y="47.535713"
         x="24.190475"
         height="170.84525"
         width="170.84525"
         id="rect4485"
         style="opacity:0.97000002;fill:#000b17;fill-opacity:1;stroke:none;stroke-width:6.61458302;stroke-linejoin:round;stroke-miterlimit:4;stroke-dasharray:none;stroke-dashoffset:0;stroke-opacity:1" />
      <g
         id="flowRoot4495"
         style="font-style:normal;font-weight:normal;font-size:13.33333302px;line-height:1.25;font-family:sans-serif;letter-spacing:0px;word-spacing:0px;fill:#ffffff;fill-opacity:1;stroke:none"
         transform="matrix(1.1128178,0,0,1.1128178,-146.92043,-283.81923)"
         aria-label="lw">
        <path
           id="path4495"
           style="font-style:normal;font-variant:normal;font-weight:normal;font-stretch:normal;font-size:96px;font-family:'Lily Script One';-inkscape-font-specification:'Lily Script One';letter-spacing:0px;fill:#ffffff"
           d="m 193.17458,409.00244 q -5.856,0 -9.216,-3.264 -3.36,-3.36 -3.36,-9.12 0,-1.536 5.184,-45.6 1.344,-11.328 7.2,-14.304 2.688,-1.44 6.432,-1.44 12.672,0 12.672,11.712 0,0.96 -0.096,2.016 -0.96,12.864 -16.128,26.208 -0.48,4.704 -1.056,9.12 -1.152,9.888 -1.152,10.944 0,4.992 4.32,4.992 4.704,0 8.736,-5.376 4.128,-5.472 6.336,-13.92 0.864,0.288 2.4,1.632 1.536,1.248 2.112,2.208 -1.536,7.968 -6.912,15.264 -2.688,3.744 -6.816,6.144 -4.704,2.784 -10.656,2.784 z m 3.744,-43.392 q 8.832,-9.696 8.832,-17.376 0,-4.608 -3.456,-4.608 -2.208,0.192 -2.976,2.88 -0.672,2.688 -1.344,8.736 -0.576,6.048 -0.768,7.488 z" />
        <path
           id="path4497"
           style="font-style:normal;font-variant:normal;font-weight:normal;font-stretch:normal;font-size:96px;font-family:'Lily Script One';-inkscape-font-specification:'Lily Script One';letter-spacing:0px;fill:#ffffff"
           d="m 248.53208,393.06644 q 0,6.912 5.856,6.912 0.192,0 0.288,0 2.688,0 4.8,-2.88 2.112,-2.88 3.168,-7.2 2.304,-8.832 2.304,-16.032 h -0.864 q -4.032,0 -6.24,-1.824 -2.304,-2.112 -2.304,-5.088 0,-2.976 1.824,-4.8 2.208,-2.016 5.472,-2.016 7.104,0 9.6,7.296 6.72,-1.632 14.208,-4.512 v 5.472 q -7.104,2.688 -13.248,4.128 0.096,0.768 0.096,2.208 -0.384,19.872 -9.312,28.8 -5.28,5.28 -13.728,5.28 -8.352,0 -12.48,-7.104 -4.704,7.2 -14.4,7.2 -5.76,0 -9.504,-4.032 -3.648,-4.128 -3.648,-9.696 0,-0.96 0.096,-2.304 2.016,-16.704 3.36,-29.568 3.456,-1.152 6.048,-1.152 6.816,0 6.816,4.704 0,1.824 -1.44,12.576 -1.824,13.536 -1.824,15.264 0,1.632 1.248,3.264 1.344,1.632 3.744,1.632 2.496,0 4.416,-2.208 1.92,-2.208 2.784,-5.376 l 3.36,-28.704 q 3.072,-1.152 6.528,-1.152 6.24,0 6.24,4.704 0,1.728 -1.344,11.232 -1.92,13.44 -1.92,14.976 z m 12.48,-26.112 q 0,1.632 2.784,1.632 0.288,0 0.576,0 -0.672,-2.592 -2.016,-2.592 -1.344,0 -1.344,0.96 z" />
      </g>
      <circle
         r="8.5526247"
         cy="72.493599"
         cx="142.72191"
         id="path4503"
         style="opacity:0.97000002;fill:#05c46b;fill-opacity:1;stroke:none;stroke-width:6.61458302;stroke-linejoin:round;stroke-miterlimit:4;stroke-dasharray:none;stroke-dashoffset:0;stroke-opacity:1" />
      <circle
         r="6.1471992"
         cy="83.986191"
         cx="160.09445"
         id="path4505"
         style="opacity:0.97000002;fill:#b33771;fill-opacity:1;stroke:none;stroke-width:6.61458302;stroke-linejoin:round;stroke-miterlimit:4;stroke-dasharray:none;stroke-dashoffset:0;stroke-opacity:1" />
      <circle
         r="4.8108511"
         cy="103.49686"
         cx="156.0854"
         id="path4507"
         style="opacity:0.97000002;fill:#f97f51;fill-opacity:1;stroke:none;stroke-width:6.61458302;stroke-linejoin:round;stroke-miterlimit:4;stroke-dasharray:none;stroke-dashoffset:0;stroke-opacity:1" />
      <circle
         r="4.8108511"
         cy="93.34063"
         cx="144.32555"
         id="path4509"
         style="opacity:0.97000002;fill:#1b9cfc;fill-opacity:1;stroke:none;stroke-width:6.61458302;stroke-linejoin:round;stroke-miterlimit:4;stroke-dasharray:none;stroke-dashoffset:0;stroke-opacity:1" />
    </g>
  </g>
</svg>
