<svg xmlns="http://www.w3.org/2000/svg" xmlns:svg="http://www.w3.org/2000/svg" id="svg8" width="645.714" height="645.714" version="1.1" viewBox="0 0 170.845 170.845"><metadata id="metadata5"/><g id="layer1" transform="translate(-24.190475,-47.535713)"><flowRoot id="flowRoot4487" fill="#fff" fill-opacity="1" stroke="none" font-family="sans-serif" font-size="13.333" font-style="normal" font-weight="normal" letter-spacing="19.36" transform="scale(0.26458333)" word-spacing="0" xml:space="preserve" style="line-height:1.25"><flowRegion id="flowRegion4489" fill="#fff"><rect id="rect4491" width="377.143" height="251.429" x="231.429" y="402.52" fill="#fff"/></flowRegion><flowPara id="flowPara4493"/></flowRoot><g id="g4508"><rect id="rect4485" width="170.845" height="170.845" x="24.19" y="47.536" fill="#000b17" fill-opacity="1" stroke="none" stroke-dasharray="none" stroke-dashoffset="0" stroke-linejoin="round" stroke-miterlimit="4" stroke-opacity="1" stroke-width="6.615" opacity=".97" ry="17.387"/><g font-size="13.333" style="line-height:1.25" id="flowRoot4495" fill="#fff" fill-opacity="1" stroke="none" aria-label="lw" font-family="sans-serif" font-style="normal" font-weight="normal" letter-spacing="0" transform="matrix(1.1128178,0,0,1.1128178,-146.92043,-283.81923)" word-spacing="0"><path font-stretch="normal" style="-inkscape-font-specification:'Lily Script One'" id="path4495" fill="#fff" d="m 193.17458,409.00244 q -5.856,0 -9.216,-3.264 -3.36,-3.36 -3.36,-9.12 0,-1.536 5.184,-45.6 1.344,-11.328 7.2,-14.304 2.688,-1.44 6.432,-1.44 12.672,0 12.672,11.712 0,0.96 -0.096,2.016 -0.96,12.864 -16.128,26.208 -0.48,4.704 -1.056,9.12 -1.152,9.888 -1.152,10.944 0,4.992 4.32,4.992 4.704,0 8.736,-5.376 4.128,-5.472 6.336,-13.92 0.864,0.288 2.4,1.632 1.536,1.248 2.112,2.208 -1.536,7.968 -6.912,15.264 -2.688,3.744 -6.816,6.144 -4.704,2.784 -10.656,2.784 z m 3.744,-43.392 q 8.832,-9.696 8.832,-17.376 0,-4.608 -3.456,-4.608 -2.208,0.192 -2.976,2.88 -0.672,2.688 -1.344,8.736 -0.576,6.048 -0.768,7.488 z" font-family="Lily Script One" font-size="96" font-style="normal" font-variant="normal" font-weight="normal" letter-spacing="0"/><path font-stretch="normal" style="-inkscape-font-specification:'Lily Script One'" id="path4497" fill="#fff" d="m 248.53208,393.06644 q 0,6.912 5.856,6.912 0.192,0 0.288,0 2.688,0 4.8,-2.88 2.112,-2.88 3.168,-7.2 2.304,-8.832 2.304,-16.032 h -0.864 q -4.032,0 -6.24,-1.824 -2.304,-2.112 -2.304,-5.088 0,-2.976 1.824,-4.8 2.208,-2.016 5.472,-2.016 7.104,0 9.6,7.296 6.72,-1.632 14.208,-4.512 v 5.472 q -7.104,2.688 -13.248,4.128 0.096,0.768 0.096,2.208 -0.384,19.872 -9.312,28.8 -5.28,5.28 -13.728,5.28 -8.352,0 -12.48,-7.104 -4.704,7.2 -14.4,7.2 -5.76,0 -9.504,-4.032 -3.648,-4.128 -3.648,-9.696 0,-0.96 0.096,-2.304 2.016,-16.704 3.36,-29.568 3.456,-1.152 6.048,-1.152 6.816,0 6.816,4.704 0,1.824 -1.44,12.576 -1.824,13.536 -1.824,15.264 0,1.632 1.248,3.264 1.344,1.632 3.744,1.632 2.496,0 4.416,-2.208 1.92,-2.208 2.784,-5.376 l 3.36,-28.704 q 3.072,-1.152 6.528,-1.152 6.24,0 6.24,4.704 0,1.728 -1.344,11.232 -1.92,13.44 -1.92,14.976 z m 12.48,-26.112 q 0,1.632 2.784,1.632 0.288,0 0.576,0 -0.672,-2.592 -2.016,-2.592 -1.344,0 -1.344,0.96 z" font-family="Lily Script One" font-size="96" font-style="normal" font-variant="normal" font-weight="normal" letter-spacing="0"/></g><circle id="path4503" cx="142.722" cy="72.494" r="8.553" fill="#05c46b" fill-opacity="1" stroke="none" stroke-dasharray="none" stroke-dashoffset="0" stroke-linejoin="round" stroke-miterlimit="4" stroke-opacity="1" stroke-width="6.615" opacity=".97"/><circle id="path4505" cx="160.094" cy="83.986" r="6.147" fill="#b33771" fill-opacity="1" stroke="none" stroke-dasharray="none" stroke-dashoffset="0" stroke-linejoin="round" stroke-miterlimit="4" stroke-opacity="1" stroke-width="6.615" opacity=".97"/><circle id="path4507" cx="156.085" cy="103.497" r="4.811" fill="#f97f51" fill-opacity="1" stroke="none" stroke-dasharray="none" stroke-dashoffset="0" stroke-linejoin="round" stroke-miterlimit="4" stroke-opacity="1" stroke-width="6.615" opacity=".97"/><circle id="path4509" cx="144.326" cy="93.341" r="4.811" fill="#1b9cfc" fill-opacity="1" stroke="none" stroke-dasharray="none" stroke-dashoffset="0" stroke-linejoin="round" stroke-miterlimit="4" stroke-opacity="1" stroke-width="6.615" opacity=".97"/></g></g></svg>