<svg version="1" xmlns="http://www.w3.org/2000/svg" width="2225.333" height="2225.333" viewBox="0 0 1669.000000 1669.000000"><path d="M152 1.1C71.5 9.6 8.6 73.3 1 154.1.2 162.2 0 362.7.2 842c.3 654.4.4 676.8 2.2 686 15.2 77.7 74.8 132.6 152.1 140 7.6.8 218 1 687.5.8 654.4-.3 676.8-.4 686-2.2 77.5-15.1 132.8-75 140-151.6.8-8.2 1-207.3.8-688-.3-654.4-.4-676.8-2.2-686-15-77.1-74.3-132.2-150.5-139.9C1503.8-.2 163.9-.2 152 1.1zm1024.2 161.5c16.6 3.8 30.1 11.6 42.6 24.8 8.9 9.5 15.7 21.2 19.2 33.6 3.1 10.7 3.8 28.1 1.6 39.1-8.3 40.7-44.7 68.9-86 66.6-31.4-1.8-57.6-19.4-71-47.8-5.9-12.5-7.1-18.4-7.1-35.9.1-14.8.2-15.9 3.3-25 9.6-27.8 31.4-48.1 59.2-55 9.8-2.4 28.4-2.6 38.2-.4zm14 241.3c28.7 10.9 39 47.2 20.5 71.6-11.3 14.9-30.7 21.7-48.7 17.1-20-5.1-35-24.4-35-45.1 0-20.2 14.7-39.6 34-45 7.7-2.1 21.7-1.4 29.2 1.4zm-667.4 5.2c64.1 7 98.9 37.8 109.4 96.9 2 11.2 1.6 50.3-.6 65.5-12.8 88.9-66.4 173.6-168 265.3l-5.9 5.3-1.8 17.7c-1.1 9.7-3.5 31-5.5 47.2-11.2 94.1-16.4 142.9-16.4 155.4.1 28.5 12.4 46.6 34.5 50.7 8.5 1.6 26.3.5 35.4-2.1 18.1-5.2 34.4-15.3 50.7-31.5 12.3-12.2 18.5-19.8 29.6-36 20-29.2 39.5-69.6 41.7-86 2.7-20.5 21.2-184.7 26.2-233 .6-6.1 1.5-11.4 1.9-11.8 1.1-1.2 20.1-6.5 34-9.4 11.2-2.4 14.6-2.7 32.5-2.7 17 0 21.4.3 29.4 2.2 22.6 5.2 36.1 15.8 41.2 32.1 4.2 13.7 2.3 35-15.1 166.1-12 90.2-18 141.6-18 152.8 0 7.4 2.1 15.6 6.1 23.4 8 15.9 19.3 25.1 34.8 28.4 32.3 6.8 61.4-12.5 81-53.7 10.1-21.2 8.4-10.3 28.2-179.8 9.8-84.5 18.1-155 18.4-156.7.5-3 1-3.3 8.8-5.7 33.5-10.5 72.2-12.7 95.7-5.5 20 6.2 31.3 18.8 34.1 38 1.8 12.3-.8 37-14.2 132.8-17.8 127.9-20.1 146.5-20.1 163.5 0 49.3 23 74.1 66.7 72.3 12.7-.6 20.6-3.1 30.2-9.6 20.5-13.9 41.1-48 52.2-86.5 10.9-37.7 20.7-86.7 25.1-126.2 2.2-20.4 4.4-59.6 3.2-60.6-.4-.4-7.9-.9-16.7-1.2-17.8-.6-28.2-2.6-40.5-7.6-20.7-8.5-36-25.8-42.1-47.6-3-10.8-3-29.3 0-40.8 9-34 41-54.3 82.6-52.3 20.6.9 36.7 5.5 52.2 14.8 7.2 4.3 19.9 16.2 26.3 24.6 5.3 7 14.4 24.1 17.5 32.7 1 2.7 2.1 5.4 2.5 5.8 2.3 2.6 83.8-21.9 132.5-39.8 11.2-4.1 20.8-7.5 21.4-7.5.8 0 1.1 9 1.1 29.4v29.4l-12.7 4.7c-34.8 12.9-79.4 27-111.8 35.3l-19 4.9.2 8.9c.4 12.9-1.5 56.2-3.2 75.4-10.3 113-43.1 197.8-97.5 252-33.5 33.5-73.9 52-124.4 57.1-17.3 1.7-48.2.7-61.1-2.1-39.8-8.5-69.6-28.5-92.7-62.5-3.3-5-6.4-9.4-6.8-9.8-.4-.4-3.2 2.5-6.3 6.6-28.5 37.9-63.6 58.8-112.7 67.2-12.9 2.2-46.1 3.1-58.4 1.6-24.9-3.2-48.7-13.1-67.1-27.9-19.4-15.7-35.6-37.8-44.5-60.7-1.7-4.4-3.4-8.8-3.8-9.8-.6-1.5-2-.2-7.4 7-28.7 38.4-70.3 68.4-114.5 82.7-22.8 7.3-45.3 10.6-72.5 10.6-44.6-.1-76.1-11.3-100.9-35.9-16.8-16.7-27.4-37-33.1-63.4-1.9-8.7-2.2-13.3-2.2-31.2 0-23.1-1-12.8 20-195.5 20.1-175 36.6-314 39-327.9 11-65.5 35-109.1 71.1-129.7 13.7-7.8 33.1-14.2 49.5-16.2 10.4-1.3 39.1-1.4 50.6-.1zm775.4 92c12.2 2.6 24.6 11.6 30.8 22.4 13.4 23.5 3.9 53.5-20.7 65.3-7.7 3.6-8 3.7-19.8 3.7s-12.1-.1-19.8-3.7c-16.8-8-26.7-23.8-26.7-42.4 0-13.4 4.9-24.4 14.9-33.6 11.6-10.8 26.1-14.9 41.3-11.7z"/><path d="M518.8 500.5c-6.9 2.3-15 10.1-19.3 18.8-7.3 15-13.6 54.7-22.5 142.7-2.3 22.3-4.9 48.1-5.9 57.5-1 9.3-1.7 17.1-1.6 17.3.8 1.1 31.5-36.6 43.2-53.1 33.9-47.8 50.2-88.5 52-129.7 1.2-28-5.9-45.3-21.2-52.1-6.4-2.9-18.1-3.5-24.7-1.4zM1171.3 743.6c-5.6 2.8-6.9 11.4-2.5 17.4 4.1 5.5 14.9 9 28.1 9 5.2 0 5.3-.1 4.7-2.5-2.7-10.5-8.3-20.1-13.9-23.5-3.9-2.4-11.9-2.6-16.4-.4z"/></svg>